<?xml version="1.0" standalone="no"?>
<!DOCTYPE svg PUBLIC "-//W3C//DTD SVG 1.1//EN" "http://www.w3.org/Graphics/SVG/1.1/DTD/svg11.dtd" >
<svg xmlns="http://www.w3.org/2000/svg">
<metadata>
This is a custom SVG webfont generated by Font Squirrel.
Designer    : Nick Cooke
Foundry     : GType Designed and digitized by Nick Cooke
</metadata>
<defs>
<font id="webfontM9HhxIt0" horiz-adv-x="600" >
<font-face units-per-em="1000" ascent="760" descent="-240" />
<missing-glyph horiz-adv-x="254" />
<glyph unicode=" "  horiz-adv-x="254" />
<glyph unicode="&#x09;" horiz-adv-x="254" />
<glyph unicode="&#xa0;" horiz-adv-x="254" />
<glyph unicode="!" horiz-adv-x="260" d="M184 37q0 -19 -13 -32.5t-33 -13.5t-33 13.5t-13 32.5t13 32.5t33 13.5t33 -13.5t13 -32.5zM102 681h73q10 0 8 -10l-19 -470q0 -10 -9 -10h-33q-9 0 -9 10l-20 470q0 10 9 10z" />
<glyph unicode="&#x22;" horiz-adv-x="284" d="M49 681h51q14 0 12 -17l-12 -173q-1 -15 -14 -15h-24q-13 0 -14 15l-11 173q-2 17 12 17zM184 681h51q14 0 12 -17l-12 -173q-1 -15 -13 -15h-25q-13 0 -13 15l-12 173q-2 17 12 17z" />
<glyph unicode="#" horiz-adv-x="680" d="M622 121h-161l-40 -190q-3 -10 -13 -10h-37q-13 0 -9 13l39 187h-187l-40 -190q-1 -10 -13 -10h-37q-11 0 -8 13l39 187h-146q-9 0 -9 9v40q0 9 9 9h158l39 182h-148q-9 0 -9 9v40q0 9 9 9h160l40 190q2 10 14 10h36q11 0 9 -15l-40 -185h187l41 190q3 10 14 10h35 q12 0 9 -15l-40 -185h147q10 0 10 -9v-40q0 -9 -10 -9h-159l-38 -182h149q9 0 9 -9v-40q0 -9 -9 -9zM265 361l-38 -182h187l38 182h-187z" />
<glyph unicode="$" d="M521 179q0 -91 -67 -142q-50 -40 -132 -46v-65q0 -9 -10 -9h-22q-10 0 -10 9v64q-112 4 -200 61q-6 3 -6 8q0 3 1 5l23 48q3 8 13 3q29 -18 47.5 -28t57 -21.5t77.5 -11.5q66 0 105 28q42 33 42 91q0 62 -81 97q-23 10 -85.5 28.5t-99.5 36.5q-94 47 -94 139q0 79 55 122 q52 44 145 47v67q0 10 10 10h22q10 0 10 -10v-66q100 -3 168 -44q8 -4 4 -13l-22 -47q-5 -8 -14 -3q-73 43 -157 43q-78 0 -114 -33q-29 -25 -29 -71q0 -33 23.5 -55t68.5 -38q16 -6 84.5 -26t103.5 -40q83 -49 83 -138z" />
<glyph unicode="%" horiz-adv-x="650" d="M288 536q0 46 -32.5 78.5t-78.5 32.5t-78.5 -32.5t-32.5 -78.5t32.5 -78.5t78.5 -32.5q47 0 79 32.5t32 78.5zM331 536q0 -63 -45.5 -108t-107.5 -45q-63 0 -108 44.5t-45 108.5q0 63 45 108t108 45q62 0 107.5 -45t45.5 -108zM361 143q0 -47 32.5 -79.5t79.5 -32.5 q46 0 78 32.5t32 79.5q0 46 -32 78.5t-78 32.5t-79 -32.5t-33 -78.5zM319 143q0 63 45.5 108t107.5 45q63 0 108 -45t45 -108t-45 -108t-108 -45t-108 45t-45 108zM89 11l424 662q5 8 13 8h30q6 0 8 -3v-3q0 -3 -2 -6l-424 -662q-4 -7 -13 -7h-30q-8 0 -8 5q0 2 2 6z" />
<glyph unicode="&#x26;" horiz-adv-x="655" d="M624 63q10 0 10 -12v-52q0 -9 -11 -9q-67 0 -161 66q-74 -66 -187 -66q-102 0 -167 48.5t-65 146.5q0 114 149 190q-43 83 -43 146q0 73 43 114.5t117 41.5q70 0 109.5 -38t39.5 -101q0 -34 -13 -62t-42.5 -51.5t-51 -37t-63.5 -35.5q64 -112 165 -200q41 60 41 162 q0 10 9 10h51q10 0 10 -10q0 -123 -53 -201q66 -50 113 -50zM388 537q0 38 -21.5 59.5t-58.5 21.5q-39 0 -62.5 -26t-23.5 -73q0 -49 35 -111l45 24q14 7 39 24.5t36 37.5t11 43zM281 48q79 0 128 49q-112 96 -187 221q-105 -56 -105 -134q0 -68 44 -102t120 -34z" />
<glyph unicode="'" horiz-adv-x="149" d="M49 681h51q14 0 12 -17l-12 -173q-1 -15 -14 -15h-24q-13 0 -14 15l-11 173q-2 17 12 17z" />
<glyph unicode="(" horiz-adv-x="273" d="M51 318q0 276 117 458q8 12 20 12h48q15 0 15 -9q0 -4 -4 -11q-118 -199 -118 -450t118 -451q4 -6 4 -11q0 -8 -15 -8h-48q-13 0 -20 11q-57 89 -87 209t-30 250z" />
<glyph unicode=")" horiz-adv-x="273" d="M222 318q0 -130 -30 -250t-87 -209q-7 -11 -20 -11h-48q-15 0 -15 8q0 5 4 11q118 200 118 451t-118 450q-4 7 -4 11q0 9 15 9h48q13 0 20 -12q117 -182 117 -458z" />
<glyph unicode="*" horiz-adv-x="423" d="M317 562l-76 -20l50 -62l26 -31q8 -11 8 -20q0 -10 -10 -18q-8 -5 -15 -5q-12 0 -23 14l-5 8l-8 11.5t-9 13.5l-44 67l-43 -67q-18 -28 -22 -33q-11 -14 -23 -14q-7 0 -14 5q-11 8 -11 18q0 9 9 20q5 8 25 31l50 62l-77 20l-38 10q-22 7 -22 22q0 5 2 10q4 17 20 17 q6 0 15 -3q20 -6 38 -13l74 -29l-5 80q-2 36 -2 40q0 29 24 29q25 0 25 -29q0 -4 -2 -40l-4 -80l74 29q17 7 37 13q8 3 15 3q15 0 20 -17q2 -5 2 -10q0 -16 -22 -22q-5 -2 -18 -5t-21 -5z" />
<glyph unicode="+" horiz-adv-x="560" d="M314 584v-197h198q9 0 9 -9v-50q0 -10 -9 -10h-198v-197q0 -10 -9 -10h-50q-10 0 -10 10v197h-197q-9 0 -9 10v50q0 9 9 9h197v197q0 10 10 10h50q9 0 9 -10z" />
<glyph unicode="," horiz-adv-x="196" d="M152 12q0 -32 -22 -62q-23 -32 -56 -45q-3 -1 -6 -1q-6 0 -9 4l-8 12q-4 8 4 14q30 23 30 41q0 11 -18 26t-18 37q0 20 12.5 32t34.5 12q56 0 56 -70z" />
<glyph unicode="-" horiz-adv-x="499" d="M401 255h-303q-9 0 -9 10v50q0 9 9 9h303q9 0 9 -9v-50q0 -10 -9 -10z" />
<glyph unicode="." horiz-adv-x="184" d="M141 37q0 -19 -13.5 -33t-32.5 -14t-32.5 13.5t-13.5 33.5q0 19 13.5 32t32.5 13t32.5 -13t13.5 -32z" />
<glyph unicode="/" horiz-adv-x="373" d="M396 668l-338 -659q-4 -9 -14 -9h-60q-11 0 -11 6q0 3 3 7l337 658q5 10 15 10h59q4 0 7 -2t3 -5t-1 -6z" />
<glyph unicode="0" d="M552 340q0 -172 -64.5 -261t-187.5 -89t-188 89t-65 261t65 261t188 89t187.5 -89t64.5 -261zM473 340q0 140 -45 211q-43 66 -128 66q-84 0 -128 -66q-47 -74 -47 -211q0 -140 46 -211q43 -66 129 -66q83 0 128 66q45 71 45 211z" />
<glyph unicode="1" d="M277 604l-145 -56q-14 -4 -14 9v49q0 10 10 14l162 63q12 5 21 5h36q10 0 10 -10v-609h139q10 0 10 -10v-50q0 -9 -10 -9h-367q-10 0 -10 9v50q0 10 10 10h148v535z" />
<glyph unicode="2" d="M163 69h340q9 0 9 -10v-50q0 -9 -9 -9h-415q-10 0 -10 9v28q0 70 15 112t51 78q37 38 118 83t106 64q63 48 63 117q0 52 -32 89q-38 43 -111 43q-77 0 -161 -57q-12 -6 -16 3l-22 43q-4 8 4 14q99 64 201 64q105 0 166 -67q47 -53 47 -130q0 -97 -84 -163 q-33 -27 -109 -69t-108 -72q-24 -23 -33.5 -49t-9.5 -71z" />
<glyph unicode="3" d="M247 318h-31q-10 0 -10 10v45q0 9 10 9h26q66 0 104 26q47 32 47 94q0 55 -40 90q-38 31 -89 31q-72 0 -142 -47q-11 -7 -16 2l-21 41q-5 10 4 15q86 56 180 56q79 0 133 -44q63 -51 63 -135q0 -116 -110 -156q65 -19 100 -63.5t35 -109.5q0 -91 -71 -145 q-60 -47 -156 -47q-112 0 -183 44q-7 5 -7 10q0 3 2 6l21 44q5 9 16 2q64 -42 146 -42q64 0 104 28q52 37 52 106q0 73 -64 110q-36 20 -103 20z" />
<glyph unicode="4" horiz-adv-x="601" d="M435 0h-58q-9 0 -9 9v147h-314q-10 0 -10 10v43q0 7 7 18l312 448q7 11 20 11h52q10 0 10 -9v-455h97q10 0 10 -9v-47q0 -10 -10 -10h-97v-147q0 -9 -10 -9zM368 568l-237 -346h237v346z" />
<glyph unicode="5" d="M98 323l27 348q0 10 9 10h349q10 0 10 -10v-50q0 -9 -10 -9h-290l-18 -222q24 21 57 33q34 14 75 14q99 0 158 -64q54 -60 54 -158q0 -94 -60 -157q-68 -68 -178 -68q-122 0 -193 63q-7 4 -7 10q0 2 1 5l21 45q5 8 13 2q37 -32 73.5 -46.5t91.5 -14.5q71 0 116 45 q45 47 45 115q0 72 -42 116q-40 43 -103 43q-52 0 -91 -25q-27 -17 -48 -44q-3 -7 -14 -5l-36 9q-10 1 -10 15z" />
<glyph unicode="6" d="M307 353q-108 0 -160 -98q5 -85 34 -132q40 -65 126 -65q65 0 104.5 41.5t39.5 106.5q0 68 -38.5 107.5t-105.5 39.5zM67 309q0 168 61 267q71 114 207 114q54 0 99 -12q40 -10 76 -31q8 -5 4 -14l-22 -46q-4 -8 -15 -2q-33 17 -66 26q-36 10 -77 10q-99 0 -148 -92 q-38 -71 -38 -197q27 39 62 60q46 29 105 29q107 0 165 -67q48 -56 48 -146q0 -101 -66 -162q-62 -56 -156 -56q-111 0 -169 67q-70 78 -70 252z" />
<glyph unicode="7" d="M82 681h428q10 0 10 -10v-44q0 -6 -5 -18l-280 -600q-5 -9 -15 -9h-64q-16 0 -8 15l230 477q17 35 65 120h-300v-98q0 -10 -10 -10h-51q-10 0 -10 10v157q0 10 10 10z" />
<glyph unicode="8" d="M463 179q0 54 -44.5 87t-122.5 61q-72 -25 -115 -59.5t-43 -87.5q0 -59 41 -94.5t121 -35.5t121.5 35t41.5 94zM438 518q0 55 -39.5 83.5t-97.5 28.5q-59 0 -98.5 -25t-39.5 -81q0 -27 12.5 -49t36 -38t43.5 -25.5t49 -20.5q134 51 134 127zM373 360q38 -17 61.5 -30.5 t51 -36t41 -52t13.5 -66.5q0 -87 -63.5 -136t-176.5 -49q-114 0 -177 48.5t-63 135.5q0 38 15.5 69.5t43 53.5t52 36t56.5 27q-64 29 -103 66.5t-39 97.5q0 83 61.5 124.5t152.5 41.5q87 0 151.5 -42t64.5 -126q0 -32 -12 -59t-35.5 -46t-44 -31.5t-50.5 -25.5z" />
<glyph unicode="9" d="M450 427q-5 94 -45.5 144t-113.5 50q-66 0 -105.5 -42t-39.5 -106q0 -70 38 -109t106 -39q106 0 160 102zM530 370q0 -168 -61 -267q-71 -114 -207 -114q-54 0 -99 12q-40 10 -76 31q-8 5 -4 14l22 46q4 8 15 2q33 -17 66 -26q36 -10 77 -10q99 0 148 92q38 71 38 197 q-27 -39 -62 -60q-46 -29 -105 -29q-107 0 -165 67q-48 56 -48 146q0 101 66 162q62 56 156 56q111 0 169 -67q70 -78 70 -252z" />
<glyph unicode=":" horiz-adv-x="191" d="M142 37q0 -20 -13 -33.5t-32 -13.5t-32.5 13.5t-13.5 33.5q0 19 13.5 32t32.5 13t32 -13t13 -32zM142 415q0 -20 -13 -33.5t-32 -13.5t-32.5 13.5t-13.5 33.5q0 19 13.5 32t32.5 13t32 -13t13 -32z" />
<glyph unicode=";" horiz-adv-x="191" d="M146 415q0 -20 -13.5 -33.5t-32.5 -13.5t-32.5 13.5t-13.5 33.5q0 19 13.5 32t32.5 13t32.5 -13t13.5 -32zM155 15q0 -34 -23 -65.5t-56 -44.5q-3 -1 -6 -1q-6 0 -9 4l-7 12q-5 8 3 14q30 23 30 41q0 11 -18 26t-18 37q0 20 13 32t35 12q54 0 56 -67z" />
<glyph unicode="&#x3c;" horiz-adv-x="614" d="M50 320v65q0 11 9 15l484 207q4 1 7 1q6 0 6 -8v-59q0 -11 -10 -15l-412 -173l412 -174q10 -3 10 -15v-59q0 -8 -6 -8q-3 0 -7 1l-484 208q-9 4 -9 14z" />
<glyph unicode="=" horiz-adv-x="560" d="M512 198h-464q-9 0 -9 9v50q0 10 9 10h464q9 0 9 -10v-50q0 -9 -9 -9zM512 438h-464q-9 0 -9 9v50q0 10 9 10h464q9 0 9 -10v-50q0 -9 -9 -9z" />
<glyph unicode="&#x3e;" horiz-adv-x="615" d="M564 385v-65q0 -10 -9 -14l-484 -208q-3 -1 -6 -1q-7 0 -7 8v59q0 12 9 15l412 174l-412 173q-9 4 -9 15v59q0 8 7 8q3 0 6 -1l484 -207q9 -4 9 -15z" />
<glyph unicode="?" horiz-adv-x="490" d="M243 624q-92 0 -184 -77q-7 -7 -13 2l-21 41q-1 2 -1 4q0 5 6 11q92 85 217 85q90 0 148 -53q62 -54 62 -142q0 -54 -25.5 -89.5t-77.5 -72.5q-54 -40 -72.5 -69.5t-20.5 -76.5q-1 -10 -12 -10h-37q-9 0 -12 8q-6 19 -6 40q0 51 46 99q11 12 24 24l35 28l33 26 q49 41 49 93q0 60 -41 95q-37 34 -97 34zM272 37q0 -20 -13.5 -33.5t-32.5 -13.5t-32.5 13.5t-13.5 33.5q0 19 13.5 32t32.5 13t32.5 -13t13.5 -32z" />
<glyph unicode="@" horiz-adv-x="801" d="M510 228v119q-106 -5 -158 -23q-69 -22 -69 -77q0 -36 30 -59q27 -21 73 -21q88 0 124 61zM425 15q74 0 143 15.5t105 37.5q11 8 14 -3l6 -18q3 -7 -5 -11q-41 -24 -115.5 -39.5t-147.5 -15.5q-165 0 -270.5 98.5t-105.5 259.5q0 144 109.5 248t262.5 104q143 0 237 -81 t94 -217q0 -107 -49 -183t-127 -76q-55 0 -61 53q-43 -54 -130 -54q-54 0 -94 26q-48 32 -48 89q0 79 102 110q60 18 165 23q0 66 -31 95q-31 30 -82 30q-60 0 -114 -37q-11 -5 -14 3l-9 17q-3 7 5 13q63 41 132 41q65 0 108 -38q46 -41 46 -124v-172q0 -40 32 -40 q53 0 93 60.5t40 162.5q0 121 -83 193t-212 72q-138 0 -237 -94t-99 -225q0 -145 95.5 -234t244.5 -89z" />
<glyph unicode="A" horiz-adv-x="691" d="M345 616q-82 0 -138 -59q-54 -62 -54 -163v-86h384v86q0 103 -54 163q-54 59 -138 59zM617 397v-388q0 -9 -9 -9h-61q-10 0 -10 9v228h-384v-228q0 -9 -10 -9h-60q-10 0 -10 9v388q0 136 85 218q72 75 187 75t188 -75q84 -83 84 -218z" />
<glyph unicode="B" horiz-adv-x="633" d="M584 182q0 -90 -65.5 -136t-159.5 -46h-275q-9 0 -9 9v662q0 10 9 10h222q94 0 149 -37q73 -48 73 -136q0 -110 -91 -150v-4q71 -12 109 -57.5t38 -114.5zM448 496q0 66 -53 98q-37 22 -86 22h-154v-238h144q64 0 93 15q56 31 56 103zM503 191q0 71 -60 103 q-34 20 -129 20h-159v-249h188q53 0 87 15q73 31 73 111z" />
<glyph unicode="C" horiz-adv-x="659" d="M401 -10q-154 0 -254 96.5t-100 254.5q0 144 104.5 246.5t251.5 102.5q114 0 208 -54q11 -6 6 -15l-24 -50q-4 -9 -14 -3q-89 50 -178 50q-110 0 -190.5 -82t-80.5 -195q0 -122 79.5 -200.5t192.5 -78.5q96 0 180 51q8 6 14 -3l24 -52q1 -2 1 -4q0 -5 -6 -9 q-97 -55 -214 -55z" />
<glyph unicode="D" horiz-adv-x="738" d="M691 340q0 -204 -155 -291q-89 -49 -223 -49h-229q-9 0 -9 9v662q0 10 9 10h244q186 0 283 -108q80 -88 80 -233zM155 613v-546h151q107 0 178 37q125 66 125 236q0 120 -62 188q-75 85 -231 85h-161z" />
<glyph unicode="E" horiz-adv-x="598" d="M84 681h469q9 0 9 -10v-51q0 -10 -9 -10h-398v-234h346q9 0 9 -9v-52q0 -9 -9 -9h-346v-235h398q9 0 9 -10v-52q0 -9 -9 -9h-469q-9 0 -9 9v662q0 10 9 10z" />
<glyph unicode="F" horiz-adv-x="561" d="M155 306v-297q0 -9 -10 -9h-61q-9 0 -9 9v662q0 10 9 10h438q9 0 9 -10v-51q0 -10 -9 -10h-367v-234h318q9 0 9 -9v-52q0 -9 -9 -9h-318z" />
<glyph unicode="G" horiz-adv-x="738" d="M403 690q114 0 208 -54q11 -6 6 -15l-24 -50q-4 -9 -14 -3q-93 50 -178 50q-112 0 -191.5 -82t-79.5 -195q0 -126 77.5 -203t193.5 -77q117 0 192 63v143h-205q-10 0 -10 10v51q0 10 10 10h271q10 0 10 -10v-319q0 -9 -10 -9h-56q-10 0 -10 9v41q-84 -60 -198 -60 q-149 0 -248.5 93.5t-99.5 257.5q0 144 104 246.5t252 102.5z" />
<glyph unicode="H" horiz-adv-x="718" d="M573 681h61q9 0 9 -10v-662q0 -9 -9 -9h-61q-10 0 -10 9v297h-408v-297q0 -9 -10 -9h-61q-9 0 -9 9v662q0 10 9 10h61q10 0 10 -10v-294h408v294q0 10 10 10z" />
<glyph unicode="I" horiz-adv-x="230" d="M84 681h61q10 0 10 -10v-662q0 -9 -10 -9h-61q-9 0 -9 9v662q0 10 9 10z" />
<glyph unicode="J" horiz-adv-x="513" d="M189 -10q-97 0 -174 63q-4 4 -4 9q0 3 1 6l28 47q6 10 14 3q63 -57 135 -57q79 0 126 48q46 48 46 142v420q0 10 9 10h61q10 0 10 -10v-426q0 -126 -74 -193q-68 -62 -178 -62z" />
<glyph unicode="K" horiz-adv-x="610" d="M490 9l-262 315l-73 -73v-242q0 -9 -10 -9h-61q-9 0 -9 9v662q0 10 9 10h61q10 0 10 -10v-318l312 318q9 10 20 10h76q7 0 8.5 -5t-3.5 -10l-284 -284l301 -366q4 -4 4 -9q0 -7 -9 -7h-72q-12 0 -18 9z" />
<glyph unicode="L" horiz-adv-x="533" d="M84 681h61q10 0 10 -10v-600h347q9 0 9 -10v-52q0 -9 -9 -9h-418q-9 0 -9 9v662q0 10 9 10z" />
<glyph unicode="M" horiz-adv-x="832" d="M757 671v-662q0 -9 -9 -9h-59q-9 0 -9 9v533l-225 -369q-6 -10 -16 -10h-44q-10 0 -16 10l-227 369v-533q0 -9 -9 -9h-59q-9 0 -9 9v662q0 10 9 10h63q11 0 17 -10l251 -416l252 416q7 10 18 10h63q9 0 9 -10z" />
<glyph unicode="N" horiz-adv-x="740" d="M588 129v542q0 10 10 10h57q10 0 10 -10v-662q0 -9 -10 -9h-56q-11 0 -18 10l-430 540v-541q0 -9 -9 -9h-58q-9 0 -9 9v662q0 10 9 10h55q10 0 19 -10z" />
<glyph unicode="O" horiz-adv-x="806" d="M759 339q0 -147 -104.5 -248t-251.5 -101t-251.5 101t-104.5 248q0 148 104.5 249.5t251.5 101.5t251.5 -102t104.5 -249zM674 339q0 114 -78.5 195t-192.5 81t-193 -81t-79 -195t79 -194.5t193 -80.5t192.5 80.5t78.5 194.5z" />
<glyph unicode="P" horiz-adv-x="626" d="M508 457q0 83 -58 123q-42 31 -110 31h-185v-308h174q77 0 117 27q62 42 62 127zM84 681h268q96 0 157 -48q80 -62 80 -176q0 -118 -87 -181q-58 -43 -160 -43h-187v-224q0 -9 -10 -9h-61q-9 0 -9 9v662q0 10 9 10z" />
<glyph unicode="Q" horiz-adv-x="806" d="M777 -97q10 -1 10 -7q0 -3 -2 -6l-27 -51q-6 -8 -16 -8q-12 0 -38.5 6.5t-69.5 20.5l-80 27l-98 35l-100 34q-11 5 -11 17v25q-127 17 -212.5 114t-85.5 229q0 148 104.5 249.5t251.5 101.5t251.5 -102t104.5 -249q0 -131 -85 -227.5t-212 -113.5q0 -7 9 -11 q61 -21 158.5 -48.5t147.5 -35.5zM674 339q0 114 -78.5 195t-192.5 81t-193 -81t-79 -195t79 -194.5t193 -80.5t192.5 80.5t78.5 194.5z" />
<glyph unicode="R" horiz-adv-x="639" d="M521 310q-43 -32 -105 -40l190 -254q4 -6 4 -10q0 -6 -9 -6h-68q-13 0 -19 10l-188 256h-171v-257q0 -9 -10 -9h-61q-9 0 -9 9v662q0 10 9 10h270q108 0 166 -39q80 -54 80 -169q0 -107 -79 -163zM345 613h-190v-280h183q82 0 122 23q59 34 59 116t-57 117 q-40 24 -117 24z" />
<glyph unicode="S" horiz-adv-x="556" d="M275 -10q-128 0 -229 65q-7 3 -7 8q0 3 2 6l25 51q3 8 13 3q101 -65 195 -65q70 0 112 31q45 35 45 96q0 67 -87 104q-25 11 -91.5 31t-105.5 39q-102 50 -102 148q0 83 59 131q65 52 183 52q113 0 198 -48q8 -6 4 -14l-24 -50q-5 -10 -14 -4q-81 47 -168 47 q-83 0 -122 -36q-32 -29 -32 -75q0 -64 99 -100q11 -4 87.5 -26.5t113.5 -44.5q89 -51 89 -147t-72 -152q-64 -50 -171 -50z" />
<glyph unicode="T" horiz-adv-x="564" d="M13 681h538q9 0 9 -10v-51q0 -10 -9 -10h-229v-601q0 -9 -10 -9h-60q-10 0 -10 9v601h-229q-9 0 -9 10v51q0 10 9 10z" />
<glyph unicode="U" horiz-adv-x="722" d="M569 278v393q0 10 9 10h61q10 0 10 -10v-402q0 -120 -66 -194q-77 -85 -222 -85t-222 85q-66 74 -66 194v402q0 10 10 10h60q10 0 10 -10v-393q0 -98 51 -155q54 -61 156 -61q103 0 157 61q52 57 52 155z" />
<glyph unicode="V" horiz-adv-x="630" d="M626 667l-265 -659q-5 -11 -16 -11h-64q-11 0 -15 11l-262 659q-2 5 -2 8q0 6 9 6h64q12 0 15 -11l223 -573h2l224 573q5 11 15 11h65q8 0 8 -7q0 -3 -1 -7z" />
<glyph unicode="W" horiz-adv-x="1072" d="M919 248v423q0 10 10 10h61q9 0 9 -10v-423q0 -120 -61 -186q-66 -72 -189 -72q-71 0 -126 34q-59 37 -87 110q-26 -71 -86 -110q-55 -34 -126 -34q-123 0 -189 72q-62 67 -62 186v423q0 10 10 10h60q10 0 10 -10v-423q0 -87 42 -134q46 -50 131 -50q67 0 110 40 q60 55 60 160v407q0 10 10 10h61q9 0 9 -10v-407q0 -104 61 -160q42 -40 110 -40q85 0 130 50q42 47 42 134z" />
<glyph unicode="X" horiz-adv-x="648" d="M375 341l270 -326q3 -5 3 -9q0 -6 -10 -6h-80q-10 0 -16 8l-217 271l-219 -271q-6 -8 -16 -8h-80q-7 0 -10 5v3q0 4 3 7l272 324l-268 327q-5 5 -3 10t9 5h80q9 0 16 -10l216 -267l213 267q7 10 16 10h81q7 0 9 -5t-2 -10z" />
<glyph unicode="Y" horiz-adv-x="610" d="M304 378l209 293q5 10 15 10h70q7 0 9 -5q1 -2 1 -3q0 -4 -3 -7l-261 -367v-290q0 -9 -10 -9h-60q-10 0 -10 9v290l-260 367q-3 4 -3 7q0 8 10 8h69q10 0 16 -10z" />
<glyph unicode="Z" horiz-adv-x="571" d="M13 15l407 595h-396q-9 0 -9 10v51q0 10 9 10h517q10 0 10 -9q0 -4 -2 -7l-407 -594h409q9 0 9 -10v-52q0 -9 -9 -9h-530q-10 0 -10 8q0 5 2 7z" />
<glyph unicode="[" horiz-adv-x="327" d="M288 -152h-206q-10 0 -10 9v921q0 10 10 10h206q10 0 10 -10v-48q0 -9 -10 -9h-137v-806h137q10 0 10 -10v-48q0 -9 -10 -9z" />
<glyph unicode="\" horiz-adv-x="276" d="M91 668l184 -655q1 -3 1 -5q0 -8 -10 -8h-52q-12 0 -15 12l-184 656q-1 3 -1 6q0 7 9 7h52q12 0 16 -13z" />
<glyph unicode="]" horiz-adv-x="327" d="M245 -152h-206q-9 0 -9 9v48q0 10 9 10h137v806h-137q-9 0 -9 9v48q0 10 9 10h206q10 0 10 -10v-921q0 -9 -10 -9z" />
<glyph unicode="^" horiz-adv-x="519" d="M241 720h36q9 0 15 -9l187 -291q2 -3 2 -6t-2 -5t-7 -2h-52q-8 0 -16 9l-145 229l-145 -229q-6 -9 -15 -9h-54q-6 0 -7 5q-1 1 -1 2q0 3 2 6l187 291q6 9 15 9z" />
<glyph unicode="_" horiz-adv-x="484" d="M484 -139h-484q-10 0 -10 10v38q0 10 10 10h484q10 0 10 -10v-38q0 -10 -10 -10z" />
<glyph unicode="`" horiz-adv-x="417" d="M133 764h50q7 0 13 -10l90 -167q1 -2 2 -5t1 -5.5t-2 -4.5t-6 -2h-37q-9 0 -14 9l-104 169q-3 6 -3 9q0 7 10 7z" />
<glyph unicode="a" horiz-adv-x="475" d="M232 401q-66 0 -137 -41q-10 -6 -14 3l-17 37q-4 8 5 13q70 47 172 47q89 0 132 -49q37 -42 37 -122v-280q0 -9 -9 -9h-47q-9 0 -9 9v16h-4q-60 -35 -136 -35q-67 0 -112 32q-51 37 -51 101q0 82 93 118q67 25 202 32v15q0 56 -23 83q-26 30 -82 30zM226 48q55 0 111 29 v141q-100 -4 -149 -18q-76 -19 -76 -73q0 -39 33.5 -59t80.5 -20z" />
<glyph unicode="b" horiz-adv-x="529" d="M82 1q-10 2 -10 12v658q0 10 10 10h54q9 0 9 -10v-239q59 28 125 28q97 0 157 -64q58 -65 58 -171q0 -93 -53 -154q-71 -81 -213 -81q-99 0 -137 11zM145 370v-314q33 -6 80 -6q99 0 149 61q36 44 36 114q0 82 -45 129q-43 44 -109 44q-60 0 -111 -28z" />
<glyph unicode="c" horiz-adv-x="471" d="M290 51q62 0 109 28q11 8 15 -2l20 -37q1 -2 1 -4q0 -4 -6 -9q-55 -37 -141 -37q-116 0 -181 68q-62 62 -62 167q0 88 51 149q71 86 193 86q80 0 138 -40q9 -7 5 -13l-21 -38q-5 -9 -15 -3q-49 31 -107 31q-82 0 -130 -57q-40 -46 -40 -115q0 -77 46 -126q45 -48 125 -48 z" />
<glyph unicode="d" horiz-adv-x="521" d="M311 61h65v319q-50 18 -99 18q-81 0 -127 -65q-31 -45 -31 -108q0 -69 41 -112q51 -52 151 -52zM439 0h-135q-131 0 -200 69q-59 57 -59 155q0 88 45 151q64 86 183 86q49 0 103 -18v228q0 10 9 10h54q10 0 10 -10v-662q0 -9 -10 -9z" />
<glyph unicode="e" horiz-adv-x="524" d="M121 258h290q-3 61 -37 100q-40 43 -104 43q-72 0 -113 -47q-33 -39 -36 -96zM288 50q69 0 136 40q11 7 15 -2l19 -37q4 -7 -4 -13q-71 -48 -172 -48q-114 0 -178 73q-59 65 -59 168q0 98 60 163q61 66 165 66q105 0 164 -72q48 -60 48 -151q0 -10 -1 -21q0 -11 -12 -11 h-348q5 -60 39 -100q46 -55 128 -55z" />
<glyph unicode="f" horiz-adv-x="339" d="M248 627q-40 0 -59 -24q-21 -25 -21 -87v-64h135q9 0 9 -10v-39q0 -9 -9 -9h-135v-385q0 -9 -10 -9h-54q-9 0 -9 9v385h-58q-10 0 -10 9v39q0 10 10 10h58v71q0 90 40 131q35 35 98 35q80 0 134 -42q5 -3 5 -8q0 -2 -1 -5l-18 -37q-5 -10 -16 -3q-42 33 -89 33z" />
<glyph unicode="g" horiz-adv-x="530" d="M246 -173q71 0 105 39q34 38 34 112v58q-54 -45 -135 -45q-91 0 -146 62q-59 67 -59 173t57 172q55 62 147 62q76 0 135 -47h3v29q0 10 9 10h52q10 0 10 -10v-456q0 -110 -57 -166q-52 -52 -156 -52q-94 0 -165 48q-8 5 -4 12l20 40q5 9 15 2q64 -43 135 -43zM257 52 q72 0 128 48v248q-64 52 -127 52q-64 0 -100 -46q-39 -48 -39 -127q0 -83 38 -130q37 -45 100 -45z" />
<glyph unicode="h" horiz-adv-x="554" d="M146 671v-296q45 85 158 85q84 0 131 -41q54 -48 54 -151v-259q0 -9 -10 -9h-53q-10 0 -10 9v243q0 81 -37 115q-31 29 -89 29q-80 0 -118 -69q-26 -49 -26 -119v-199q0 -9 -9 -9h-55q-10 0 -10 9v662q0 10 10 10h55q9 0 9 -10z" />
<glyph unicode="i" horiz-adv-x="218" d="M72 442q0 10 10 10h54q9 0 9 -10v-433q0 -9 -9 -9h-54q-10 0 -10 9v433zM108 623q-18 0 -31 12.5t-13 31.5q0 18 13 30.5t31 12.5t31 -12.5t13 -30.5q0 -19 -13 -31.5t-31 -12.5z" />
<glyph unicode="j" horiz-adv-x="217" d="M151 667q0 -19 -12.5 -31.5t-30.5 -12.5q-19 0 -31.5 12.5t-12.5 31.5q0 18 12.5 30.5t31.5 12.5q18 0 30.5 -12.5t12.5 -30.5zM72 -2v444q0 9 10 9h54q9 0 9 -9v-406q0 -107 -18 -171t-73 -96q-4 -1 -7 -1q-7 0 -12 5l-33 33q-4 4 -4 8t5 7q40 25 54.5 66t14.5 111z" />
<glyph unicode="k" horiz-adv-x="485" d="M376 9l-167 200l-64 -58v-142q0 -9 -9 -9h-54q-10 0 -10 9v662q0 10 10 10h54q9 0 9 -10v-440l220 212q9 9 19 9h62q9 0 10.5 -6t-4.5 -11l-193 -179l203 -241q4 -6 4 -9q0 -6 -11 -6h-62q-12 0 -17 9z" />
<glyph unicode="l" horiz-adv-x="217" d="M72 671q0 10 10 10h54q9 0 9 -10v-662q0 -9 -9 -9h-54q-10 0 -10 9v662z" />
<glyph unicode="m" horiz-adv-x="817" d="M143 398h3q46 62 132 62q62 0 102 -30q33 -24 48 -64q20 44 60 70q38 24 93 24q79 0 123 -44q48 -46 48 -138v-269q0 -9 -9 -9h-55q-10 0 -10 9v251q0 72 -30 105q-28 31 -82 31q-61 0 -91 -48q-26 -44 -26 -124v-215q0 -9 -9 -9h-55q-10 0 -10 9v251q0 72 -30 105 q-28 31 -82 31q-61 0 -91 -48q-26 -44 -26 -114v-225q0 -9 -9 -9h-55q-10 0 -10 9v433q0 10 10 10h51q10 0 10 -10v-44z" />
<glyph unicode="n" horiz-adv-x="554" d="M143 375h3q45 85 158 85q84 0 131 -41q54 -48 54 -151v-259q0 -9 -10 -9h-53q-10 0 -10 9v243q0 81 -37 115q-31 29 -89 29q-80 0 -118 -69q-26 -49 -26 -119v-199q0 -9 -9 -9h-55q-10 0 -10 9v433q0 10 10 10h51q10 0 10 -10v-67z" />
<glyph unicode="o" horiz-adv-x="567" d="M117 225q0 -74 45 -122q47 -53 122 -53t122 53q45 48 45 122t-45 122q-47 53 -122 53t-122 -53q-45 -48 -45 -122zM45 225q0 102 67 167q68 68 172 68t172 -68q67 -65 67 -167t-67 -167q-68 -68 -172 -68t-172 68q-67 65 -67 167z" />
<glyph unicode="p" horiz-adv-x="524" d="M145 395v-324q42 -21 99 -21q72 0 118 46q45 43 45 130q0 80 -48 126q-51 49 -135 49q-31 0 -79 -6zM83 448q62 12 134 12q123 0 194 -65q69 -64 69 -169t-57 -165q-64 -71 -172 -71q-62 0 -106 20v-232q0 -9 -9 -9h-54q-10 0 -10 9v657q0 10 11 13z" />
<glyph unicode="q" horiz-adv-x="523" d="M378 -222v277q-45 -65 -132 -65q-86 0 -140 56q-61 63 -61 178q0 94 53 157q70 79 208 79q72 0 132 -15q13 -4 13 -15v-652q0 -9 -10 -9h-54q-9 0 -9 9zM378 216v178q-51 7 -77 7q-101 0 -150 -63q-34 -43 -34 -112q0 -86 41 -133q37 -43 99 -43q121 0 121 166z" />
<glyph unicode="r" horiz-adv-x="377" d="M261 393q-51 0 -81 -40q-34 -46 -34 -132v-212q0 -9 -9 -9h-55q-10 0 -10 9v433q0 10 10 10h51q10 0 10 -10v-55h3q35 73 127 73q63 0 108 -36q4 -4 4 -8q0 -2 -1 -5l-22 -45q-5 -9 -15 -2q-41 29 -86 29z" />
<glyph unicode="s" horiz-adv-x="410" d="M198 49q94 0 94 68q0 26 -16 41.5t-48 29.5q-12 6 -50.5 19.5t-58.5 22.5q-74 34 -74 109q0 57 43 89.5t122 32.5q82 0 140 -33q8 -5 5 -13l-20 -41q-4 -9 -13 -3q-52 29 -109 29q-92 0 -92 -61q0 -23 14 -36t41 -25q15 -7 54 -20.5t55 -21.5q83 -39 83 -113 q0 -61 -45 -97t-122 -36q-93 0 -156 38q-6 3 -6 7q0 2 2 5l20 41q5 9 13 4q58 -36 124 -36z" />
<glyph unicode="t" horiz-adv-x="353" d="M157 394v-235q0 -50 15 -73q20 -33 71 -33q43 0 82 28q10 7 15 -1l18 -39q1 -2 1 -5q0 -4 -5 -8q-53 -38 -129 -38q-75 0 -111 44q-31 39 -31 116v244h-53q-10 0 -10 9v39q0 10 10 10h53v87q0 10 10 10h54q10 0 10 -10v-87h157q10 0 10 -10v-39q0 -9 -10 -9h-157z" />
<glyph unicode="u" horiz-adv-x="545" d="M65 191v251q0 10 9 10h54q10 0 10 -10v-244q0 -55 18 -88q33 -55 117 -55q87 0 116 54q18 31 18 89v244q0 10 10 10h54q9 0 9 -10v-251q0 -79 -33 -128q-50 -73 -174 -73q-125 0 -175 73q-33 49 -33 128z" />
<glyph unicode="v" horiz-adv-x="450" d="M446 438l-176 -430q-5 -11 -16 -11h-63q-11 0 -15 11l-172 430q-2 5 -2 8q0 6 9 6h58q12 0 15 -11l141 -371h2l140 371q5 11 15 11h57q9 0 9 -6q0 -3 -2 -8z" />
<glyph unicode="w" horiz-adv-x="795" d="M730 442v-251q0 -81 -27 -128q-40 -73 -150 -73q-88 0 -128 53q-20 24 -27 42q-8 -18 -28 -42q-40 -53 -127 -53q-111 0 -151 73q-27 48 -27 128v251q0 10 9 10h54q10 0 10 -10v-247q0 -56 17 -90q25 -49 93 -49q72 0 97 54q16 32 16 87v245q0 10 10 10h54q9 0 9 -10 v-245q0 -52 16 -87q25 -54 98 -54q67 0 92 48q18 33 18 91v247q0 10 10 10h53q9 0 9 -10z" />
<glyph unicode="x" horiz-adv-x="476" d="M7 15l186 215l-177 206q-5 6 -3 11t9 5h68q9 0 16 -10l132 -161l133 161q7 10 16 10h65q8 0 9.5 -5t-3.5 -11l-177 -201l188 -220q4 -6 4 -9q0 -6 -11 -6h-66q-8 0 -16 8l-142 172l-143 -172q-6 -8 -16 -8h-65q-7 0 -10 5v3q0 4 3 7z" />
<glyph unicode="y" horiz-adv-x="477" d="M470 439l-180 -463q-39 -98 -87 -149q-61 -59 -151 -59h-11q-8 0 -8 8v55q0 7 9 7q2 0 8 -0.5t11 -0.5q54 0 95 46q31 36 54 90l-205 466q-1 4 -1 6q0 7 9 7h65q12 0 15 -11l155 -377l140 377q3 11 15 11h60q8 0 8 -6q0 -3 -1 -7z" />
<glyph unicode="z" horiz-adv-x="403" d="M385 0h-368q-10 0 -10 6q0 3 4 9l269 373h-256q-9 0 -9 10v44q0 10 9 10h359q7 0 9.5 -5t-1.5 -11l-269 -372h263q9 0 9 -10v-45q0 -9 -9 -9z" />
<glyph unicode="{" horiz-adv-x="319" d="M32 292v50q0 9 9 9h5q43 0 64 32q26 36 26 116l-3 141q0 69 28 104q35 42 117 42q10 0 10 -9v-41q0 -9 -9 -9q-41 0 -61 -26q-15 -22 -15 -72l2 -137q0 -85 -31 -127q-23 -33 -68 -48q42 -14 68 -48q31 -44 31 -127l-2 -137q0 -50 15 -72q20 -27 61 -27q9 0 9 -9v-40 q0 -10 -10 -10q-81 0 -117 42q-28 35 -28 105l3 140q0 81 -26 117q-22 31 -64 31h-5q-9 0 -9 10z" />
<glyph unicode="|" horiz-adv-x="224" d="M84 681h55q10 0 10 -10v-880q0 -9 -10 -9h-55q-9 0 -9 9v880q0 10 9 10z" />
<glyph unicode="}" horiz-adv-x="319" d="M287 342v-50q0 -10 -9 -10h-5q-42 0 -64 -31q-26 -36 -26 -117l3 -140q0 -70 -28 -105q-36 -42 -117 -42q-10 0 -10 10v40q0 9 9 9q42 0 61 27q15 22 15 72l-2 137q0 83 31 127q26 34 68 48q-45 15 -68 48q-31 42 -31 127l2 137q0 50 -15 72q-20 26 -61 26q-9 0 -9 9v41 q0 9 10 9q82 0 117 -42q28 -35 28 -104l-3 -141q0 -80 26 -116q21 -32 64 -32h5q9 0 9 -9z" />
<glyph unicode="~" horiz-adv-x="601" d="M412 219q-35 0 -66.5 14t-51.5 30.5t-47 30.5t-54 14q-32 0 -53 -17t-21 -53q0 -9 -11 -9h-47q-10 0 -10 9q0 68 39.5 104t98.5 36q36 0 68 -14t51.5 -30.5t46.5 -30.5t53 -14q32 0 53 16.5t21 52.5q0 10 10 10h48q10 0 10 -10q0 -68 -39 -103.5t-99 -35.5z" />
<glyph unicode="&#xa0;" />
<glyph unicode="&#xa1;" horiz-adv-x="246" d="M78 414q0 20 13 33t33 13t33 -13t13 -33t-13 -33t-33 -13t-33 13t-13 33zM160 -230h-73q-10 0 -8 10l19 470q0 10 9 10h33q9 0 9 -10l20 -470q0 -10 -9 -10z" />
<glyph unicode="&#xa2;" d="M334 537h22q10 0 10 -10v-68q67 -4 121 -39q8 -6 5 -13l-21 -38q-5 -10 -15 -3q-49 31 -107 31q-82 0 -130 -57q-40 -45 -40 -115q0 -78 45 -126q46 -48 125 -48q63 0 110 28q10 7 14 -2l21 -37q1 -2 1 -4q0 -5 -6 -9q-46 -31 -123 -36v-67q0 -9 -10 -9h-22q-10 0 -10 9 v67q-100 6 -158 67q-62 64 -62 167q0 89 52 149q61 76 168 84v69q0 10 10 10z" />
<glyph unicode="&#xa3;" d="M203 204q0 30 -15 79h-80q-10 0 -10 9v45q0 10 10 10h56q-32 79 -32 136q0 95 61 151q59 56 159 56q93 0 158 -40q6 -3 6 -8q0 -3 -1 -5l-21 -42q-4 -9 -12 -4q-58 33 -124 33q-70 0 -110 -40q-40 -38 -40 -104q0 -47 32 -133h214q10 0 10 -10v-45q0 -9 -10 -9h-191 q13 -46 13 -76q0 -79 -53 -138h281q10 0 10 -10v-50q0 -9 -10 -9h-424q-10 0 -10 9v50q0 10 10 10h65q58 54 58 135z" />
<glyph unicode="&#xa4;" horiz-adv-x="691" d="M149 388q-1 -82 57 -140q57 -58 137 -58h3h3q79 0 136 58q58 58 58 140q0 81 -57.5 138.5t-139.5 57.5t-140 -57.5t-57 -138.5zM52 140l90 91q-55 68 -55 157q0 90 56 157l-92 90q-3 4 -3 7.5t3 6.5l33 33q3 4 6.5 4t7.5 -4l91 -91q69 56 157 56q89 0 156 -56l91 92 q4 3 7.5 3t6.5 -3l33 -33q3 -3 2.5 -6.5t-2.5 -7.5l-91 -91q56 -67 56 -157q0 -88 -55 -158l90 -91q3 -3 3.5 -6.5t-3.5 -7.5l-32 -33q-3 -2 -7 -2l-7 2l-92 92q-66 -55 -156 -55q-88 0 -158 55l-90 -91q-4 -2 -7 -3l-7 3l-32 33q-3 3 -3.5 6.5t3.5 7.5z" />
<glyph unicode="&#xa5;" d="M72 208h186v86h-186q-9 0 -9 10v35q0 9 9 9h158l-216 319q-2 3 -2 6t2.5 5.5t6.5 2.5h70q11 0 17 -11l190 -292l192 292q6 11 16 11h71q10 0 10 -7q0 -3 -2 -7l-218 -319h158q9 0 9 -9v-35q0 -10 -9 -10h-187v-86h187q9 0 9 -10v-35q0 -10 -9 -10h-187v-144q0 -9 -9 -9 h-61q-10 0 -10 9v144h-186q-9 0 -9 10v35q0 10 9 10z" />
<glyph unicode="&#xa6;" horiz-adv-x="224" d="M84 681h55q10 0 10 -10v-372q0 -9 -10 -9h-55q-9 0 -9 9v372q0 10 9 10zM84 173h55q10 0 10 -10v-372q0 -9 -10 -9h-55q-9 0 -9 9v372q0 10 9 10z" />
<glyph unicode="&#xa7;" horiz-adv-x="471" d="M222 -230q-86 0 -157 49q-8 6 -5 13l19 40q5 9 13 3q61 -46 127 -46q45 0 71 25q28 26 28 72q0 25 -9 45.5t-28.5 38.5t-36 29.5t-46.5 30.5l-46 29q-48 34 -75.5 73.5t-27.5 95.5q0 87 75 147q-47 47 -47 111q0 71 43 116q48 49 130 49q86 0 157 -49q8 -5 5 -13l-19 -40 q-4 -9 -14 -3q-61 46 -125 46q-50 0 -76 -29q-24 -23 -24 -68q0 -11 2.5 -21.5t5 -19t9.5 -18.5l11 -16q5 -6 16 -15l15 -13q5 -5 19 -14.5t19 -12.5l21 -13q16 -10 20 -13q62 -39 96 -80.5t34 -104.5q0 -86 -75 -149q47 -47 47 -110q0 -72 -45 -117q-47 -48 -127 -48z M297 92q49 37 49 92q0 71 -79 125q-12 9 -44.5 29t-48.5 32q-49 -41 -49 -93q0 -69 71 -120q16 -12 51 -33t50 -32z" />
<glyph unicode="&#xa8;" horiz-adv-x="417" d="M114 623q-18 0 -31 13t-13 31t13 31t31 13q19 0 31.5 -13t12.5 -31t-12.5 -31t-31.5 -13zM302 623q-18 0 -31 13t-13 31t13 31t31 13t31 -13t13 -31t-13 -31t-31 -13z" />
<glyph unicode="&#xa9;" horiz-adv-x="833" d="M91 358q0 -135 94.5 -230.5t230.5 -95.5q135 0 229.5 95.5t94.5 230.5t-94.5 231t-229.5 96t-230 -96t-95 -231zM784 358q0 -153 -107.5 -260t-260.5 -107q-154 0 -261.5 107t-107.5 260t107.5 261t261.5 108q153 0 260.5 -108t107.5 -261zM428 171q-82 0 -135.5 50 t-53.5 134q0 79 56 131.5t133 52.5q54 0 94 -20q9 -5 13.5 -8.5t3.5 -7.5q0 -3 -7.5 -16t-9.5 -13q-4 -1 -22 7q-32 16 -73 16q-58 0 -99.5 -40.5t-41.5 -101.5q0 -64 40.5 -103t101.5 -39q42 0 75 14q17 7 21 5q1 0 8 -14q8 -14 8 -18q0 -3 -2 -5q-3 -3 -12 -6 q-45 -18 -98 -18z" />
<glyph unicode="&#xaa;" horiz-adv-x="283" d="M75 293h131q10 0 10 -10v-15q0 -9 -10 -9h-131q-9 0 -9 9v15q0 10 9 10zM141 445q33 0 62 16v88q-59 -5 -82 -12q-43 -12 -43 -46q0 -22 17.5 -34t45.5 -12zM34 490q0 47 48 69q33 17 121 22v7q0 41 -20 57q-14 11 -40 11q-38 0 -79 -24q-8 -4 -11 2l-8 17q-3 7 6 12 q44 28 98 28q41 0 66 -19q33 -25 33 -90v-165q0 -9 -9 -9h-22q-9 0 -9 9v14h-3q-14 -10 -35 -17q-21 -6 -43 -6q-37 0 -66 21q-27 22 -27 61z" />
<glyph unicode="&#xab;" horiz-adv-x="577" d="M31 227q0 6 7 15l191 207q9 9 19 9h54q9 0 10.5 -5t-3.5 -12l-194 -214l194 -213q5 -8 3.5 -13t-10.5 -5h-54q-10 0 -19 10l-191 207q-7 7 -7 14zM265 227q0 7 8 15l191 207q8 9 19 9h54q8 0 10 -5q1 -1 1 -3q0 -4 -5 -9l-194 -214l194 -213q5 -6 5 -10q0 -2 -1 -3 q-2 -5 -10 -5h-54q-11 0 -19 10l-191 207q-8 6 -8 14z" />
<glyph unicode="&#xac;" horiz-adv-x="558" d="M35 324v54q0 9 9 9h469q10 0 10 -9v-183q0 -10 -10 -10h-50q-10 0 -10 10v120h-409q-9 0 -9 9z" />
<glyph unicode="&#xad;" horiz-adv-x="499" d="M98 324h303q9 0 9 -9v-50q0 -10 -9 -10h-303q-9 0 -9 10v50q0 9 9 9z" />
<glyph unicode="&#xae;" horiz-adv-x="464" d="M232 719q77 0 131 -54t54 -130t-54 -129.5t-130 -53.5q-77 0 -131 53.5t-54 129.5t54 130t130 54zM233 376q66 0 112.5 47t46.5 112q0 67 -46.5 113.5t-113.5 46.5q-66 0 -112.5 -46.5t-46.5 -113.5q0 -66 46.5 -112.5t113.5 -46.5zM307 572q0 -42 -48 -51l50 -65 q3 -4 3 -6q0 -4 -8 -4h-12q-6 0 -11 6l-50 66h-46v-65q0 -7 -8 -7h-11q-7 0 -7 8v165q0 8 8 8h72q68 0 68 -55zM281 573q0 31 -45 31h-51v-64h50q46 0 46 33z" />
<glyph unicode="&#xaf;" horiz-adv-x="637" d="M90 687h236q10 0 10 -9v-42q0 -9 -10 -9h-236q-10 0 -10 9v42q0 9 10 9z" />
<glyph unicode="&#xb0;" horiz-adv-x="370" d="M286 593q0 43 -29.5 72t-71.5 29q-43 0 -71.5 -29t-28.5 -72t28.5 -72t71.5 -29q42 0 71.5 29t29.5 72zM320 593q0 -56 -39.5 -95t-95.5 -39t-95.5 39t-39.5 95t39.5 95.5t95.5 39.5t95.5 -39.5t39.5 -95.5z" />
<glyph unicode="&#xb1;" horiz-adv-x="560" d="M314 623v-197h198q9 0 9 -9v-50q0 -10 -9 -10h-198v-197q0 -10 -9 -10h-50q-10 0 -10 10v197h-197q-9 0 -9 10v50q0 9 9 9h197v197q0 10 10 10h50q9 0 9 -10zM48 69h464q9 0 9 -10v-50q0 -9 -9 -9h-464q-9 0 -9 9v50q0 10 9 10z" />
<glyph unicode="&#xb2;" horiz-adv-x="417" d="M92 342v13q0 62 36 99q20 20 63 43t59 37q24 21 24 52q0 32 -22 49t-51 17q-39 0 -80 -27q-8 -5 -12 3l-9 18q-4 8 5 14q49 31 98 31t82 -30q32 -30 32 -74q0 -46 -35 -78q-20 -18 -61.5 -40.5t-57.5 -37.5q-24 -24 -24 -58h171q9 0 9 -10v-21q0 -9 -9 -9h-209q-9 0 -9 9 z" />
<glyph unicode="&#xb3;" horiz-adv-x="417" d="M189 497h-10q-9 0 -9 9v17q0 10 9 10h7q26 0 44 7q33 14 33 53q0 25 -18 42t-48 17q-34 0 -68 -20q-8 -5 -13 3l-8 17q-5 10 4 15q48 24 88 24q47 0 75.5 -27t28.5 -67q0 -57 -53 -79q65 -23 65 -89q0 -45 -32.5 -73t-87.5 -28q-50 0 -91 22q-6 3 -6 8q0 2 2 5l8 19 q4 8 13 2q34 -19 71 -19q38 0 59.5 18t21.5 49q0 44 -43 59q-17 6 -42 6z" />
<glyph unicode="&#xb4;" horiz-adv-x="417" d="M233 764h50q7 0 9 -6q1 -1 1 -3q0 -4 -3 -7l-104 -169q-5 -9 -14 -9h-37q-8 0 -8 7q0 4 3 10l90 167q6 10 13 10z" />
<glyph unicode="&#xb5;" horiz-adv-x="545" d="M65 -162v604q0 10 9 10h54q10 0 10 -10v-249q0 -55 18 -88q33 -55 117 -55q86 0 115 55q19 33 19 88v249q0 10 10 10h54q9 0 9 -10v-251q0 -79 -33 -128q-50 -73 -174 -73q-52 0 -88 17q-32 15 -47 45v-214q0 -9 -10 -9h-54q-9 0 -9 9z" />
<glyph unicode="&#xb6;" horiz-adv-x="620" d="M584 654h-100v-844q0 -10 -9 -10h-48q-9 0 -9 10v844h-117v-844q0 -10 -10 -10h-47q-10 0 -10 10v501q-92 5 -144 59t-52 144q0 97 60 149.5t170 52.5h316q10 0 10 -9v-43q0 -10 -10 -10z" />
<glyph unicode="&#xb7;" horiz-adv-x="192" d="M145 345q0 -20 -14 -34t-34 -14t-34 14t-14 34t14 33.5t34 13.5t34 -13.5t14 -33.5z" />
<glyph unicode="&#xb8;" horiz-adv-x="431" d="M254 -110q0 -47 -38 -67.5t-87 -20.5q-21 0 -38 3q-8 2 -8 9v22q0 8 8 8q3 0 14 -1t22 -1q31 0 53.5 12t22.5 38q0 21 -18 31.5t-45 10.5q-11 0 -21 -1l7 76h39v-44q39 -3 64 -22.5t25 -52.5z" />
<glyph unicode="&#xb9;" horiz-adv-x="417" d="M193 640l-75 -27q-14 -6 -14 9v16q0 10 10 14l92 35q8 4 13 4h10q9 0 9 -10v-308h70q10 0 10 -10v-21q0 -9 -10 -9h-192q-10 0 -10 9v21q0 10 10 10h77v267z" />
<glyph unicode="&#xba;" horiz-adv-x="385" d="M95 550q0 -40 24 -69q26 -33 73 -33q49 0 74 33q24 29 24 69t-24 69q-26 33 -74 33q-47 0 -73 -33q-24 -29 -24 -69zM49 550q0 55 35 95q43 46 108 46q66 0 109 -46q35 -40 35 -95t-35 -95q-43 -46 -109 -46q-65 0 -108 46q-35 40 -35 95zM126 293h131q10 0 10 -10v-15 q0 -9 -10 -9h-131q-9 0 -9 9v15q0 10 9 10z" />
<glyph unicode="&#xbb;" horiz-adv-x="577" d="M546 227q0 -7 -7 -14l-191 -207q-9 -10 -20 -10h-53q-9 0 -10.5 5t3.5 13l194 213l-194 214q-5 7 -3.5 12t10.5 5h53q11 0 20 -9l191 -207q7 -9 7 -15zM312 227q0 -6 -8 -14l-191 -207q-7 -10 -19 -10h-54q-12 0 -12 6q0 5 6 12l194 213l-194 214q-5 6 -5 10q0 7 11 7h54 q11 0 19 -9l191 -207q8 -10 8 -15z" />
<glyph unicode="&#xbc;" horiz-adv-x="417" d="M49 257h318q9 0 9 -10v-21q0 -9 -9 -9h-318q-10 0 -10 9v21q0 10 10 10zM68 -90l156 220q7 11 20 11h17q9 0 9 -10v-222h48q10 0 10 -10v-19q0 -9 -10 -9h-48v-75q0 -9 -9 -9h-25q-10 0 -10 9v75h-155q-10 0 -10 9v12q0 8 7 18zM115 -91h111v159zM188 640l-75 -27 q-14 -6 -14 9v16q0 10 10 14l92 35q8 4 13 4h10q10 0 10 -10v-308h70q9 0 9 -10v-21q0 -9 -9 -9h-193q-10 0 -10 9v21q0 10 10 10h77v267z" />
<glyph unicode="&#xbd;" horiz-adv-x="417" d="M91 -201v13q0 63 36 99q20 20 63 43t59 37q24 21 24 52q0 32 -23 49q-20 17 -51 17q-39 0 -79 -27q-9 -5 -13 3l-8 18q-5 8 4 14q51 31 99 31q49 0 81 -30q32 -29 32 -74q0 -47 -34 -78l-119 -78q-24 -24 -24 -58h171q9 0 9 -10v-21q0 -9 -9 -9h-209q-9 0 -9 9zM188 640 l-75 -27q-14 -6 -14 9v16q0 10 10 14l92 35q8 4 13 4h10q10 0 10 -10v-308h70q9 0 9 -10v-21q0 -9 -9 -9h-193q-10 0 -10 9v21q0 10 10 10h77v267zM49 257h318q9 0 9 -10v-21q0 -9 -9 -9h-318q-10 0 -10 9v21q0 10 10 10z" />
<glyph unicode="&#xbe;" horiz-adv-x="417" d="M180 497h-10q-9 0 -9 9v17q0 10 9 10h7q26 0 44 7q33 14 33 53q0 25 -18 42t-48 17q-34 0 -68 -20q-8 -5 -13 3l-8 17q-5 10 4 15q48 24 88 24q47 0 75.5 -27t28.5 -67q0 -57 -53 -79q65 -23 65 -89q0 -45 -32.5 -73t-87.5 -28q-50 0 -91 22q-10 5 -4 13l8 19q4 8 13 2 q34 -19 71 -19q38 0 59.5 18t21.5 49q0 44 -43 59q-17 6 -42 6zM49 257h318q9 0 9 -10v-21q0 -9 -9 -9h-318q-10 0 -10 9v21q0 10 10 10zM68 -90l156 220q7 11 20 11h17q9 0 9 -10v-222h48q10 0 10 -10v-19q0 -9 -10 -9h-48v-75q0 -9 -9 -9h-25q-10 0 -10 9v75h-155 q-10 0 -10 9v12q0 8 7 18zM115 -91h111v159z" />
<glyph unicode="&#xbf;" horiz-adv-x="499" d="M257 -173q94 0 184 78q8 6 13 -3l21 -41q1 -2 1 -4q0 -5 -6 -11q-92 -85 -217 -85q-90 0 -149 53q-61 55 -61 142q0 54 25.5 89.5t77.5 73.5q54 39 72.5 69t20.5 77q2 10 12 10h37q8 0 12 -9q6 -20 6 -40q0 -51 -46 -99q-11 -12 -24 -23l-35 -28l-33 -27q-49 -41 -49 -93 q0 -60 40 -95q39 -34 98 -34zM228 415q0 19 13 32.5t33 13.5t33 -13.5t13 -32.5t-13 -32.5t-33 -13.5t-33 13.5t-13 32.5z" />
<glyph unicode="&#xc0;" horiz-adv-x="691" d="M345 616q-82 0 -138 -59q-54 -62 -54 -163v-86h384v86q0 103 -54 163q-54 59 -138 59zM617 397v-388q0 -9 -9 -9h-61q-10 0 -10 9v228h-384v-228q0 -9 -10 -9h-60q-10 0 -10 9v388q0 136 85 218q72 75 187 75t188 -75q84 -83 84 -218zM269 969h50q7 0 13 -10l90 -167 q1 -2 2 -5t1 -5.5t-2 -4.5t-6 -2h-37q-9 0 -14 9l-104 169q-3 6 -3 9q0 7 10 7z" />
<glyph unicode="&#xc1;" horiz-adv-x="691" d="M345 616q-82 0 -138 -59q-54 -62 -54 -163v-86h384v86q0 103 -54 163q-54 59 -138 59zM617 397v-388q0 -9 -9 -9h-61q-10 0 -10 9v228h-384v-228q0 -9 -10 -9h-60q-10 0 -10 9v388q0 136 85 218q72 75 187 75t188 -75q84 -83 84 -218zM374 969h50q7 0 9 -5q1 -2 1 -4 q0 -4 -3 -7l-104 -169q-5 -9 -14 -9h-37q-9 0 -9 6q0 4 4 11l90 167q6 10 13 10z" />
<glyph unicode="&#xc2;" horiz-adv-x="691" d="M345 616q-82 0 -138 -59q-54 -62 -54 -163v-86h384v86q0 103 -54 163q-54 59 -138 59zM617 397v-388q0 -9 -9 -9h-61q-10 0 -10 9v228h-384v-228q0 -9 -10 -9h-60q-10 0 -10 9v388q0 136 85 218q72 75 187 75t188 -75q84 -83 84 -218zM331 968h26q6 0 14 -8l155 -173 q4 -4 4 -7q0 -2 -2 -4t-6 -2h-46q-9 0 -17 8l-115 126l-115 -126q-8 -8 -17 -8h-46q-4 0 -6 2t-2 4q0 3 4 7l155 173q8 8 14 8z" />
<glyph unicode="&#xc3;" horiz-adv-x="691" d="M345 616q-82 0 -138 -59q-54 -62 -54 -163v-86h384v86q0 103 -54 163q-54 59 -138 59zM617 397v-388q0 -9 -9 -9h-61q-10 0 -10 9v228h-384v-228q0 -9 -10 -9h-60q-10 0 -10 9v388q0 136 85 218q72 75 187 75t188 -75q84 -83 84 -218zM411 892q41 0 45 38q1 10 10 10h23 q12 0 12 -10q0 -41 -22 -66t-62 -25q-33 0 -76 29q-40 26 -62 26q-41 0 -45 -39q-3 -10 -10 -10h-23q-12 0 -12 11q0 41 22 66t62 25q36 0 77 -29q42 -26 61 -26z" />
<glyph unicode="&#xc4;" horiz-adv-x="691" d="M345 616q-82 0 -138 -59q-54 -62 -54 -163v-86h384v86q0 103 -54 163q-54 59 -138 59zM617 397v-388q0 -9 -9 -9h-61q-10 0 -10 9v228h-384v-228q0 -9 -10 -9h-60q-10 0 -10 9v388q0 136 85 218q72 75 187 75t188 -75q84 -83 84 -218zM250 825q-18 0 -31 13t-13 31t13 31 t31 13q19 0 31.5 -13t12.5 -31t-12.5 -31t-31.5 -13zM438 825q-18 0 -31 13t-13 31t13 31t31 13t31 -13t13 -31t-13 -31t-31 -13z" />
<glyph unicode="&#xc5;" horiz-adv-x="691" d="M345 616q-82 0 -138 -59q-54 -62 -54 -163v-86h384v86q0 103 -54 163q-54 59 -138 59zM617 397v-388q0 -9 -9 -9h-61q-10 0 -10 9v228h-384v-228q0 -9 -10 -9h-60q-10 0 -10 9v388q0 136 85 218q72 75 187 75t188 -75q84 -83 84 -218zM460 862q0 -48 -34 -82t-81 -34 q-48 0 -82 33.5t-34 82.5q0 48 34 82t82 34q47 0 81 -34t34 -82zM424 862q0 33 -23.5 56.5t-55.5 23.5q-33 0 -56 -23.5t-23 -56.5q0 -34 23 -57.5t56 -23.5q32 0 55.5 23.5t23.5 57.5z" />
<glyph unicode="&#xc6;" horiz-adv-x="1010" d="M617 397v-21h296q9 0 9 -9v-52q0 -9 -9 -9h-296v-235h348q9 0 9 -10v-52q0 -9 -9 -9h-418h-2q-3 0 -5 2q-3 3 -3 7v228h-384v-228q0 -9 -10 -9h-60q-10 0 -10 9v388q0 136 85 218q72 75 187 75t188 -75q1 -3 4 -4v60q0 10 10 10h418q9 0 9 -10v-51q0 -10 -9 -10h-348 v-201v-12zM345 616q-82 0 -138 -59q-54 -62 -54 -163v-86h384v86q0 103 -54 163q-54 59 -138 59z" />
<glyph unicode="&#xc7;" horiz-adv-x="659" d="M508 -110q0 -47 -38 -67.5t-87 -20.5q-21 0 -38 3q-8 2 -8 9v22q0 8 8 8q3 0 14 -1t22 -1q31 0 53.5 12t22.5 38q0 21 -18 31.5t-45 10.5q-11 0 -21 -1l5 58q-145 8 -238 103.5t-93 246.5q0 144 104.5 246.5t251.5 102.5q114 0 208 -54q11 -6 6 -15l-24 -50q-4 -9 -14 -3 q-89 50 -178 50q-110 0 -190.5 -82t-80.5 -195q0 -122 79.5 -200.5t192.5 -78.5q96 0 180 51q8 6 14 -3l24 -52q1 -2 1 -4q0 -5 -6 -9q-92 -51 -196 -55v-25q39 -3 64 -22.5t25 -52.5z" />
<glyph unicode="&#xc8;" horiz-adv-x="598" d="M84 681h469q9 0 9 -10v-51q0 -10 -9 -10h-398v-234h346q9 0 9 -9v-52q0 -9 -9 -9h-346v-235h398q9 0 9 -10v-52q0 -9 -9 -9h-469q-9 0 -9 9v662q0 10 9 10zM220 969h50q7 0 13 -10l90 -167q1 -2 2 -5t1 -5.5t-2 -4.5t-6 -2h-37q-9 0 -14 9l-104 169q-3 6 -3 9q0 7 10 7z " />
<glyph unicode="&#xc9;" horiz-adv-x="598" d="M84 681h469q9 0 9 -10v-51q0 -10 -9 -10h-398v-234h346q9 0 9 -9v-52q0 -9 -9 -9h-346v-235h398q9 0 9 -10v-52q0 -9 -9 -9h-469q-9 0 -9 9v662q0 10 9 10zM354 969h50q7 0 9 -5q1 -2 1 -4q0 -4 -3 -7l-104 -169q-5 -9 -14 -9h-37q-9 0 -9 6q0 4 4 11l90 167q6 10 13 10z " />
<glyph unicode="&#xca;" horiz-adv-x="598" d="M84 681h469q9 0 9 -10v-51q0 -10 -9 -10h-398v-234h346q9 0 9 -9v-52q0 -9 -9 -9h-346v-235h398q9 0 9 -10v-52q0 -9 -9 -9h-469q-9 0 -9 9v662q0 10 9 10zM294 968h26q6 0 14 -8l155 -173q4 -4 4 -7q0 -2 -2 -4t-6 -2h-46q-9 0 -17 8l-115 126l-115 -126q-8 -8 -17 -8 h-46q-4 0 -6 2t-2 4q0 3 4 7l155 173q8 8 14 8z" />
<glyph unicode="&#xcb;" horiz-adv-x="598" d="M84 681h469q9 0 9 -10v-51q0 -10 -9 -10h-398v-234h346q9 0 9 -9v-52q0 -9 -9 -9h-346v-235h398q9 0 9 -10v-52q0 -9 -9 -9h-469q-9 0 -9 9v662q0 10 9 10zM221 825q-18 0 -31 13t-13 31t13 31t31 13q19 0 31.5 -13t12.5 -31t-12.5 -31t-31.5 -13zM409 825q-18 0 -31 13 t-13 31t13 31t31 13t31 -13t13 -31t-13 -31t-31 -13z" />
<glyph unicode="&#xcc;" horiz-adv-x="229" d="M84 681h61q10 0 10 -10v-662q0 -9 -10 -9h-61q-9 0 -9 9v662q0 10 9 10zM38 969h50q7 0 13 -10l90 -167q1 -2 2 -5t1 -5.5t-2 -4.5t-6 -2h-37q-9 0 -14 9l-104 169q-3 6 -3 9q0 7 10 7z" />
<glyph unicode="&#xcd;" horiz-adv-x="229" d="M84 681h61q10 0 10 -10v-662q0 -9 -10 -9h-61q-9 0 -9 9v662q0 10 9 10zM142 969h50q7 0 9 -5q1 -2 1 -4q0 -4 -3 -7l-104 -169q-5 -9 -14 -9h-37q-9 0 -9 6q0 4 4 11l90 167q6 10 13 10z" />
<glyph unicode="&#xce;" horiz-adv-x="229" d="M84 681h61q10 0 10 -10v-662q0 -9 -10 -9h-61q-9 0 -9 9v662q0 10 9 10zM101 968h26q6 0 14 -8l155 -173q4 -4 4 -7q0 -2 -2 -4t-6 -2h-46q-9 0 -17 8l-115 126l-115 -126q-8 -8 -17 -8h-46q-4 0 -6 2t-2 4q0 3 4 7l155 173q8 8 14 8z" />
<glyph unicode="&#xcf;" horiz-adv-x="229" d="M84 681h61q10 0 10 -10v-662q0 -9 -10 -9h-61q-9 0 -9 9v662q0 10 9 10zM21 825q-18 0 -31 13t-13 31t13 31t31 13q19 0 31.5 -13t12.5 -31t-12.5 -31t-31.5 -13zM209 825q-18 0 -31 13t-13 31t13 31t31 13t31 -13t13 -31t-13 -31t-31 -13z" />
<glyph unicode="&#xd0;" horiz-adv-x="743" d="M696 340q0 -204 -154 -291q-89 -49 -224 -49h-229q-9 0 -9 9v297h-84q-10 0 -10 10v49q0 9 10 9h84v297q0 10 9 10h244q186 0 284 -108q79 -89 79 -233zM160 613v-239h158q10 0 10 -9v-49q0 -10 -10 -10h-158v-239h151q108 0 178 37q125 66 125 236q0 120 -62 188 q-75 85 -231 85h-161z" />
<glyph unicode="&#xd1;" horiz-adv-x="740" d="M588 129v542q0 10 10 10h57q10 0 10 -10v-662q0 -9 -10 -9h-56q-11 0 -18 10l-430 540v-541q0 -9 -9 -9h-58q-9 0 -9 9v662q0 10 9 10h55q10 0 19 -10zM436 892q41 0 45 38q1 10 10 10h23q12 0 12 -10q0 -41 -22 -66t-62 -25q-33 0 -76 29q-40 26 -62 26q-41 0 -45 -39 q-3 -10 -10 -10h-23q-12 0 -12 11q0 41 22 66t62 25q36 0 77 -29q42 -26 61 -26z" />
<glyph unicode="&#xd2;" horiz-adv-x="806" d="M759 339q0 -147 -104.5 -248t-251.5 -101t-251.5 101t-104.5 248q0 148 104.5 249.5t251.5 101.5t251.5 -102t104.5 -249zM674 339q0 114 -78.5 195t-192.5 81t-193 -81t-79 -195t79 -194.5t193 -80.5t192.5 80.5t78.5 194.5zM325 969h50q7 0 13 -10l90 -167q1 -2 2 -5 t1 -5.5t-2 -4.5t-6 -2h-37q-9 0 -14 9l-104 169q-3 6 -3 9q0 7 10 7z" />
<glyph unicode="&#xd3;" horiz-adv-x="806" d="M759 339q0 -147 -104.5 -248t-251.5 -101t-251.5 101t-104.5 248q0 148 104.5 249.5t251.5 101.5t251.5 -102t104.5 -249zM674 339q0 114 -78.5 195t-192.5 81t-193 -81t-79 -195t79 -194.5t193 -80.5t192.5 80.5t78.5 194.5zM429 969h50q7 0 9 -5q1 -2 1 -4q0 -4 -3 -7 l-104 -169q-5 -9 -14 -9h-37q-8 0 -8 7q0 4 3 10l90 167q6 10 13 10z" />
<glyph unicode="&#xd4;" horiz-adv-x="806" d="M759 339q0 -147 -104.5 -248t-251.5 -101t-251.5 101t-104.5 248q0 148 104.5 249.5t251.5 101.5t251.5 -102t104.5 -249zM674 339q0 114 -78.5 195t-192.5 81t-193 -81t-79 -195t79 -194.5t193 -80.5t192.5 80.5t78.5 194.5zM389 968h26q6 0 14 -8l155 -173q4 -4 4 -7 q0 -2 -2 -4t-6 -2h-46q-9 0 -17 8l-115 126l-115 -126q-8 -8 -17 -8h-46q-4 0 -6 2t-2 4q0 3 4 7l155 173q8 8 14 8z" />
<glyph unicode="&#xd5;" horiz-adv-x="806" d="M759 339q0 -147 -104.5 -248t-251.5 -101t-251.5 101t-104.5 248q0 148 104.5 249.5t251.5 101.5t251.5 -102t104.5 -249zM674 339q0 114 -78.5 195t-192.5 81t-193 -81t-79 -195t79 -194.5t193 -80.5t192.5 80.5t78.5 194.5zM468 892q41 0 45 38q1 10 10 10h23 q12 0 12 -10q0 -41 -22 -66t-62 -25q-33 0 -76 29q-40 26 -62 26q-41 0 -45 -39q-3 -10 -10 -10h-23q-12 0 -12 11q0 41 22 66t62 25q36 0 77 -29q42 -26 61 -26z" />
<glyph unicode="&#xd6;" horiz-adv-x="806" d="M759 339q0 -147 -104.5 -248t-251.5 -101t-251.5 101t-104.5 248q0 148 104.5 249.5t251.5 101.5t251.5 -102t104.5 -249zM674 339q0 114 -78.5 195t-192.5 81t-193 -81t-79 -195t79 -194.5t193 -80.5t192.5 80.5t78.5 194.5zM308 825q-18 0 -31 13t-13 31t13 31t31 13 q19 0 31.5 -13t12.5 -31t-12.5 -31t-31.5 -13zM496 825q-18 0 -31 13t-13 31t13 31t31 13t31 -13t13 -31t-13 -31t-31 -13z" />
<glyph unicode="&#xd7;" horiz-adv-x="481" d="M77 565l163 -163l164 163q2 3 6.5 3t6.5 -3l36 -36q3 -3 3 -6.5t-3 -6.5l-164 -163l164 -164q2 -2 2 -6.5t-2 -6.5l-36 -36q-4 -3 -7 -3t-6 3l-164 164l-163 -164q-4 -3 -7 -3t-6 3l-36 36q-2 3 -2 6.5t2 7.5l163 163l-163 163q-3 3 -3 6.5t3 6.5l36 36q2 2 6.5 2t6.5 -2 z" />
<glyph unicode="&#xd8;" horiz-adv-x="806" d="M759 339q0 -147 -104.5 -248t-251.5 -101q-115 0 -209 65l-40 -46q-9 -9 -15 -9h-47q-6 0 -8.5 4t1.5 9l67 77q-105 102 -105 249q0 148 104.5 249.5t251.5 101.5q115 0 209 -67l41 48q8 10 16 10h45q7 0 9 -4.5t-2 -9.5l-67 -78q105 -103 105 -250zM131 339 q0 -111 73 -189l357 414q-70 51 -158 51q-114 0 -193 -81t-79 -195zM674 339q0 108 -73 189l-357 -414q70 -50 159 -50q114 0 192.5 80.5t78.5 194.5z" />
<glyph unicode="&#xd9;" horiz-adv-x="722" d="M569 278v393q0 10 9 10h61q10 0 10 -10v-402q0 -120 -66 -194q-77 -85 -222 -85t-222 85q-66 74 -66 194v402q0 10 10 10h60q10 0 10 -10v-393q0 -98 51 -155q54 -61 156 -61q103 0 157 61q52 57 52 155zM284 969h50q7 0 13 -10l90 -167q1 -2 2 -5t1 -5.5t-2 -4.5t-6 -2 h-37q-9 0 -14 9l-104 169q-3 6 -3 9q0 7 10 7z" />
<glyph unicode="&#xda;" horiz-adv-x="722" d="M569 278v393q0 10 9 10h61q10 0 10 -10v-402q0 -120 -66 -194q-77 -85 -222 -85t-222 85q-66 74 -66 194v402q0 10 10 10h60q10 0 10 -10v-393q0 -98 51 -155q54 -61 156 -61q103 0 157 61q52 57 52 155zM387 969h50q7 0 9 -5q1 -2 1 -4q0 -4 -3 -7l-104 -169 q-5 -9 -14 -9h-37q-8 0 -8 7q0 4 3 10l90 167q6 10 13 10z" />
<glyph unicode="&#xdb;" horiz-adv-x="722" d="M569 278v393q0 10 9 10h61q10 0 10 -10v-402q0 -120 -66 -194q-77 -85 -222 -85t-222 85q-66 74 -66 194v402q0 10 10 10h60q10 0 10 -10v-393q0 -98 51 -155q54 -61 156 -61q103 0 157 61q52 57 52 155zM347 968h26q6 0 14 -8l155 -173q4 -4 4 -7q0 -2 -2 -4t-6 -2h-46 q-9 0 -17 8l-115 126l-115 -126q-8 -8 -17 -8h-46q-4 0 -6 2t-2 4q0 3 4 7l155 173q8 8 14 8z" />
<glyph unicode="&#xdc;" horiz-adv-x="722" d="M569 278v393q0 10 9 10h61q10 0 10 -10v-402q0 -120 -66 -194q-77 -85 -222 -85t-222 85q-66 74 -66 194v402q0 10 10 10h60q10 0 10 -10v-393q0 -98 51 -155q54 -61 156 -61q103 0 157 61q52 57 52 155zM267 825q-18 0 -31 13t-13 31t13 31t31 13q19 0 31.5 -13 t12.5 -31t-12.5 -31t-31.5 -13zM455 825q-18 0 -31 13t-13 31t13 31t31 13t31 -13t13 -31t-13 -31t-31 -13z" />
<glyph unicode="&#xdd;" horiz-adv-x="610" d="M304 378l209 293q5 10 15 10h70q7 0 9 -5q1 -2 1 -3q0 -4 -3 -7l-261 -367v-290q0 -9 -10 -9h-60q-10 0 -10 9v290l-260 367q-3 4 -3 7q0 8 10 8h69q10 0 16 -10zM336 969h50q7 0 9 -5q1 -2 1 -4q0 -4 -3 -7l-104 -169q-5 -9 -14 -9h-37q-9 0 -9 6q0 4 4 11l90 167 q6 10 13 10z" />
<glyph unicode="&#xde;" horiz-adv-x="626" d="M75 -136v807q0 10 9 10h61q10 0 10 -10v-131h197q96 0 157 -48q80 -61 80 -176q0 -118 -87 -181q-58 -43 -160 -43h-187v-228q0 -10 -10 -10h-61q-9 0 -9 10zM508 316q0 78 -52 119q-43 35 -116 35h-185v-308h174q80 0 121 30q58 42 58 124z" />
<glyph unicode="&#xdf;" horiz-adv-x="552" d="M320 -10q-94 0 -151 45q-8 6 -4 14l20 40q5 9 13 3q48 -40 120 -40q53 0 86 31q34 31 34 82q0 14 -2.5 25.5t-11 22.5t-13 18t-19.5 18t-19 13l-24 16q-20 12 -22 13q-4 2 -15 9t-15 9t-13.5 8t-13 9.5t-10.5 9.5t-10 10l-6 11q-3 6 -4.5 13t-1.5 14q0 21 20 36.5 t44.5 25t44.5 32t20 56.5q0 44 -27 69q-28 27 -82 27q-58 0 -87 -38q-26 -32 -26 -95v-554q0 -10 -9 -10h-54q-10 0 -10 10v554q0 84 41 133q48 60 143 60q92 0 139 -41q46 -40 46 -105q0 -40 -21 -68.5t-46 -40t-46 -24t-21 -23.5q0 -13 14 -23t46 -24.5t46 -22.5 q95 -55 95 -148q0 -81 -57 -133q-52 -47 -131 -47z" />
<glyph unicode="&#xe0;" horiz-adv-x="475" d="M232 401q-66 0 -137 -41q-10 -6 -14 3l-17 37q-4 8 5 13q70 47 172 47q89 0 132 -49q37 -42 37 -122v-280q0 -9 -9 -9h-47q-9 0 -9 9v16h-4q-60 -35 -136 -35q-67 0 -112 32q-51 37 -51 101q0 82 93 118q67 25 202 32v15q0 56 -23 83q-26 30 -82 30zM226 48q55 0 111 29 v141q-100 -4 -149 -18q-76 -19 -76 -73q0 -39 33.5 -59t80.5 -20zM162 765h50q7 0 13 -10l90 -167q1 -2 2 -5t1 -5.5t-2 -4.5t-6 -2h-37q-9 0 -14 9l-104 169q-3 6 -3 9q0 7 10 7z" />
<glyph unicode="&#xe1;" horiz-adv-x="475" d="M232 401q-66 0 -137 -41q-10 -6 -14 3l-17 37q-4 8 5 13q70 47 172 47q89 0 132 -49q37 -42 37 -122v-280q0 -9 -9 -9h-47q-9 0 -9 9v16h-4q-60 -35 -136 -35q-67 0 -112 32q-51 37 -51 101q0 82 93 118q67 25 202 32v15q0 56 -23 83q-26 30 -82 30zM226 48q55 0 111 29 v141q-100 -4 -149 -18q-76 -19 -76 -73q0 -39 33.5 -59t80.5 -20zM263 764h50q7 0 9 -6q1 -1 1 -3q0 -4 -3 -7l-104 -169q-5 -9 -14 -9h-37q-8 0 -8 7q0 4 3 10l90 167q6 10 13 10z" />
<glyph unicode="&#xe2;" horiz-adv-x="488" d="M232 401q-66 0 -137 -41q-10 -6 -14 3l-17 37q-4 8 5 13q70 47 172 47q89 0 132 -49q37 -42 37 -122v-280q0 -9 -9 -9h-47q-9 0 -9 9v16h-4q-60 -35 -136 -35q-67 0 -112 32q-51 37 -51 101q0 82 93 118q67 25 202 32v15q0 56 -23 83q-26 30 -82 30zM226 48q55 0 111 29 v141q-100 -4 -149 -18q-76 -19 -76 -73q0 -39 33.5 -59t80.5 -20zM224 764h26q6 0 14 -8l155 -173q4 -4 4 -7q0 -2 -2 -4t-6 -2h-46q-9 0 -17 8l-115 126l-115 -126q-8 -8 -17 -8h-46q-4 0 -6 2t-2 4q0 3 4 7l155 173q8 8 14 8z" />
<glyph unicode="&#xe3;" horiz-adv-x="475" d="M232 401q-66 0 -137 -41q-10 -6 -14 3l-17 37q-4 8 5 13q70 47 172 47q89 0 132 -49q37 -42 37 -122v-280q0 -9 -9 -9h-47q-9 0 -9 9v16h-4q-60 -35 -136 -35q-67 0 -112 32q-51 37 -51 101q0 82 93 118q67 25 202 32v15q0 56 -23 83q-26 30 -82 30zM226 48q55 0 111 29 v141q-100 -4 -149 -18q-76 -19 -76 -73q0 -39 33.5 -59t80.5 -20zM301 666q41 0 45 38q1 10 10 10h23q12 0 12 -10q0 -41 -22 -66t-62 -25q-33 0 -76 29q-40 26 -62 26q-41 0 -45 -39q-3 -10 -10 -10h-23q-12 0 -12 11q0 41 22 66t62 25q36 0 77 -29q42 -26 61 -26z" />
<glyph unicode="&#xe4;" horiz-adv-x="475" d="M232 401q-66 0 -137 -41q-10 -6 -14 3l-17 37q-4 8 5 13q70 47 172 47q89 0 132 -49q37 -42 37 -122v-280q0 -9 -9 -9h-47q-9 0 -9 9v16h-4q-60 -35 -136 -35q-67 0 -112 32q-51 37 -51 101q0 82 93 118q67 25 202 32v15q0 56 -23 83q-26 30 -82 30zM226 48q55 0 111 29 v141q-100 -4 -149 -18q-76 -19 -76 -73q0 -39 33.5 -59t80.5 -20zM143 623q-18 0 -31 13t-13 31t13 31t31 13q19 0 31.5 -13t12.5 -31t-12.5 -31t-31.5 -13zM331 623q-18 0 -31 13t-13 31t13 31t31 13t31 -13t13 -31t-13 -31t-31 -13z" />
<glyph unicode="&#xe5;" horiz-adv-x="475" d="M232 401q-66 0 -137 -41q-10 -6 -14 3l-17 37q-4 8 5 13q70 47 172 47q89 0 132 -49q37 -42 37 -122v-280q0 -9 -9 -9h-47q-9 0 -9 9v16h-4q-60 -35 -136 -35q-67 0 -112 32q-51 37 -51 101q0 82 93 118q67 25 202 32v15q0 56 -23 83q-26 30 -82 30zM226 48q55 0 111 29 v141q-100 -4 -149 -18q-76 -19 -76 -73q0 -39 33.5 -59t80.5 -20zM352 662q0 -48 -34 -82t-81 -34q-48 0 -82 33.5t-34 82.5q0 48 34 82t82 34q47 0 81 -34t34 -82zM316 662q0 33 -23.5 56.5t-55.5 23.5q-33 0 -56 -23.5t-23 -56.5q0 -34 23 -57.5t56 -23.5q32 0 55.5 23.5 t23.5 57.5z" />
<glyph unicode="&#xe6;" horiz-adv-x="816" d="M773 222q0 -11 -11 -11h-348q3 -65 38 -108q46 -56 127 -56q74 0 139 40q10 7 15 -2l18 -34q4 -6 -5 -13q-71 -48 -171 -48q-117 0 -183 77q-47 -43 -89 -59q-45 -18 -107 -18q-68 0 -110 36q-44 36 -44 94q0 70 84 103q75 30 211 35v30q0 57 -23 86q-25 30 -81 30 q-77 0 -139 -40q-11 -7 -14 2l-16 34q-3 8 5 13q71 47 172 47q59 0 92 -21q35 -22 53 -79q22 45 65 72q44 28 111 28q105 0 165 -72q46 -59 46 -151v-15zM217 43q50 0 82 14q33 13 69 47q-28 47 -29 106q-104 0 -169 -24q-58 -21 -58 -64q0 -37 31 -59q28 -20 74 -20z M414 258h289q-1 62 -36 101q-39 44 -104 44q-74 0 -114 -48q-32 -40 -35 -97z" />
<glyph unicode="&#xe7;" horiz-adv-x="471" d="M392 -110q0 -47 -38 -67.5t-87 -20.5q-21 0 -38 3q-8 2 -8 9v22q0 8 8 8q3 0 14 -1t22 -1q31 0 53.5 12t22.5 38q0 21 -18 31.5t-45 10.5q-11 0 -21 -1l5 58q-99 8 -155 67q-62 62 -62 167q0 88 51 149q71 86 193 86q80 0 138 -40q9 -7 5 -13l-21 -38q-5 -9 -15 -3 q-49 31 -107 31q-82 0 -130 -57q-40 -46 -40 -115q0 -77 46 -126q45 -48 125 -48q62 0 109 28q11 8 15 -2l20 -37q1 -2 1 -4q0 -4 -6 -9q-51 -34 -126 -37v-25q39 -3 64 -22.5t25 -52.5z" />
<glyph unicode="&#xe8;" horiz-adv-x="524" d="M121 258h290q-3 61 -37 100q-40 43 -104 43q-72 0 -113 -47q-33 -39 -36 -96zM288 50q69 0 136 40q11 7 15 -2l19 -37q4 -7 -4 -13q-71 -48 -172 -48q-114 0 -178 73q-59 65 -59 168q0 98 60 163q61 66 165 66q105 0 164 -72q48 -60 48 -151q0 -10 -1 -21q0 -11 -12 -11 h-348q5 -60 39 -100q46 -55 128 -55zM187 765h50q7 0 13 -10l90 -167q1 -2 2 -5t1 -5.5t-2 -4.5t-6 -2h-37q-9 0 -14 9l-104 169q-3 6 -3 9q0 7 10 7z" />
<glyph unicode="&#xe9;" horiz-adv-x="524" d="M121 258h290q-3 61 -37 100q-40 43 -104 43q-72 0 -113 -47q-33 -39 -36 -96zM288 50q69 0 136 40q11 7 15 -2l19 -37q4 -7 -4 -13q-71 -48 -172 -48q-114 0 -178 73q-59 65 -59 168q0 98 60 163q61 66 165 66q105 0 164 -72q48 -60 48 -151q0 -10 -1 -21q0 -11 -12 -11 h-348q5 -60 39 -100q46 -55 128 -55zM287 764h50q7 0 9 -6q1 -1 1 -3q0 -4 -3 -7l-104 -169q-5 -9 -14 -9h-37q-8 0 -8 7q0 4 3 10l90 167q6 10 13 10z" />
<glyph unicode="&#xea;" horiz-adv-x="524" d="M121 258h290q-3 61 -37 100q-40 43 -104 43q-72 0 -113 -47q-33 -39 -36 -96zM288 50q69 0 136 40q11 7 15 -2l19 -37q4 -7 -4 -13q-71 -48 -172 -48q-114 0 -178 73q-59 65 -59 168q0 98 60 163q61 66 165 66q105 0 164 -72q48 -60 48 -151q0 -10 -1 -21q0 -11 -12 -11 h-348q5 -60 39 -100q46 -55 128 -55zM248 764h26q6 0 14 -8l155 -173q4 -4 4 -7q0 -2 -2 -4t-6 -2h-46q-9 0 -17 8l-115 126l-115 -126q-8 -8 -17 -8h-46q-4 0 -6 2t-2 4q0 3 4 7l155 173q8 8 14 8z" />
<glyph unicode="&#xeb;" horiz-adv-x="524" d="M121 258h290q-3 61 -37 100q-40 43 -104 43q-72 0 -113 -47q-33 -39 -36 -96zM288 50q69 0 136 40q11 7 15 -2l19 -37q4 -7 -4 -13q-71 -48 -172 -48q-114 0 -178 73q-59 65 -59 168q0 98 60 163q61 66 165 66q105 0 164 -72q48 -60 48 -151q0 -10 -1 -21q0 -11 -12 -11 h-348q5 -60 39 -100q46 -55 128 -55zM167 623q-18 0 -31 13t-13 31t13 31t31 13q19 0 31.5 -13t12.5 -31t-12.5 -31t-31.5 -13zM355 623q-18 0 -31 13t-13 31t13 31t31 13t31 -13t13 -31t-13 -31t-31 -13z" />
<glyph unicode="&#xec;" horiz-adv-x="218" d="M72 442q0 10 10 10h54q9 0 9 -10v-433q0 -9 -9 -9h-54q-10 0 -10 9v433zM34 765h50q7 0 13 -10l90 -167q1 -2 2 -5t1 -5.5t-2 -4.5t-6 -2h-37q-9 0 -14 9l-104 169q-3 6 -3 9q0 7 10 7z" />
<glyph unicode="&#xed;" horiz-adv-x="218" d="M72 442q0 10 10 10h54q9 0 9 -10v-433q0 -9 -9 -9h-54q-10 0 -10 9v433zM134 764h50q7 0 9 -6q1 -1 1 -3q0 -4 -3 -7l-104 -169q-5 -9 -14 -9h-37q-9 0 -9 6q0 4 4 11l90 167q6 10 13 10z" />
<glyph unicode="&#xee;" horiz-adv-x="218" d="M72 442q0 10 10 10h54q9 0 9 -10v-433q0 -9 -9 -9h-54q-10 0 -10 9v433zM96 764h26q6 0 14 -8l155 -173q4 -4 4 -7q0 -2 -2 -4t-6 -2h-46q-9 0 -17 8l-115 126l-115 -126q-8 -8 -17 -8h-46q-4 0 -6 2t-2 4q0 3 4 7l155 173q8 8 14 8z" />
<glyph unicode="&#xef;" horiz-adv-x="218" d="M72 442q0 10 10 10h54q9 0 9 -10v-433q0 -9 -9 -9h-54q-10 0 -10 9v433zM15 623q-18 0 -31 13t-13 31t13 31t31 13q19 0 31.5 -13t12.5 -31t-12.5 -31t-31.5 -13zM203 623q-18 0 -31 13t-13 31t13 31t31 13t31 -13t13 -31t-13 -31t-31 -13z" />
<glyph unicode="&#xf0;" horiz-adv-x="510" d="M398 223q0 38 -10 86q-61 40 -128 40q-56 0 -101 -37t-45 -105q0 -70 37.5 -113t101.5 -43q63 0 104 44t41 128zM46 207q0 86 55 139q61 61 147 61q62 0 117 -36q-33 99 -114 181l-92 -72q-8 -6 -13 1l-20 25q-5 7 3 14l83 65q-27 27 -73 59q-9 5 -3 13l34 34q3 4 8 4 q3 0 8 -3q46 -30 82 -65l82 65q4 3 8 3.5t6 -3.5l19 -26q6 -8 -1 -13l-77 -60q74 -78 118 -174.5t44 -195.5q0 -112 -60.5 -172.5t-152.5 -60.5q-82 0 -138 48q-70 60 -70 169z" />
<glyph unicode="&#xf1;" horiz-adv-x="554" d="M143 375h3q45 85 158 85q84 0 131 -41q54 -48 54 -151v-259q0 -9 -10 -9h-53q-10 0 -10 9v243q0 81 -37 115q-31 29 -89 29q-80 0 -118 -69q-26 -49 -26 -119v-199q0 -9 -9 -9h-55q-10 0 -10 9v433q0 10 10 10h51q10 0 10 -10v-67zM340 666q41 0 45 38q1 10 10 10h23 q12 0 12 -10q0 -41 -22 -66t-62 -25q-33 0 -76 29q-40 26 -62 26q-41 0 -45 -39q-3 -10 -10 -10h-23q-12 0 -12 11q0 41 22 66t62 25q36 0 77 -29q42 -26 61 -26z" />
<glyph unicode="&#xf2;" horiz-adv-x="567" d="M117 225q0 -74 45 -122q47 -53 122 -53t122 53q45 48 45 122t-45 122q-47 53 -122 53t-122 -53q-45 -48 -45 -122zM45 225q0 102 67 167q68 68 172 68t172 -68q67 -65 67 -167t-67 -167q-68 -68 -172 -68t-172 68q-67 65 -67 167zM208 765h50q7 0 13 -10l90 -167 q1 -2 2 -5t1 -5.5t-2 -4.5t-6 -2h-37q-9 0 -14 9l-104 169q-3 6 -3 9q0 7 10 7z" />
<glyph unicode="&#xf3;" horiz-adv-x="567" d="M117 225q0 -74 45 -122q47 -53 122 -53t122 53q45 48 45 122t-45 122q-47 53 -122 53t-122 -53q-45 -48 -45 -122zM45 225q0 102 67 167q68 68 172 68t172 -68q67 -65 67 -167t-67 -167q-68 -68 -172 -68t-172 68q-67 65 -67 167zM308 764h50q7 0 9 -6q1 -1 1 -3 q0 -4 -3 -7l-104 -169q-5 -9 -14 -9h-37q-9 0 -9 6q0 4 4 11l90 167q6 10 13 10z" />
<glyph unicode="&#xf4;" horiz-adv-x="567" d="M117 225q0 -74 45 -122q47 -53 122 -53t122 53q45 48 45 122t-45 122q-47 53 -122 53t-122 -53q-45 -48 -45 -122zM45 225q0 102 67 167q68 68 172 68t172 -68q67 -65 67 -167t-67 -167q-68 -68 -172 -68t-172 68q-67 65 -67 167zM270 764h26q6 0 14 -8l155 -173 q4 -4 4 -7q0 -2 -2 -4t-6 -2h-46q-9 0 -17 8l-115 126l-115 -126q-8 -8 -17 -8h-46q-4 0 -6 2t-2 4q0 3 4 7l155 173q8 8 14 8z" />
<glyph unicode="&#xf5;" horiz-adv-x="567" d="M117 225q0 -74 45 -122q47 -53 122 -53t122 53q45 48 45 122t-45 122q-47 53 -122 53t-122 -53q-45 -48 -45 -122zM45 225q0 102 67 167q68 68 172 68t172 -68q67 -65 67 -167t-67 -167q-68 -68 -172 -68t-172 68q-67 65 -67 167zM347 666q41 0 45 38q1 10 10 10h23 q12 0 12 -10q0 -41 -22 -66t-62 -25q-33 0 -76 29q-40 26 -62 26q-41 0 -45 -39q-3 -10 -10 -10h-23q-12 0 -12 11q0 41 22 66t62 25q36 0 77 -29q42 -26 61 -26z" />
<glyph unicode="&#xf6;" horiz-adv-x="567" d="M117 225q0 -74 45 -122q47 -53 122 -53t122 53q45 48 45 122t-45 122q-47 53 -122 53t-122 -53q-45 -48 -45 -122zM45 225q0 102 67 167q68 68 172 68t172 -68q67 -65 67 -167t-67 -167q-68 -68 -172 -68t-172 68q-67 65 -67 167zM189 623q-18 0 -31 13t-13 31t13 31 t31 13q19 0 31.5 -13t12.5 -31t-12.5 -31t-31.5 -13zM377 623q-18 0 -31 13t-13 31t13 31t31 13t31 -13t13 -31t-13 -31t-31 -13z" />
<glyph unicode="&#xf7;" horiz-adv-x="582" d="M291 613q19 0 32 -13t13 -32t-13 -32.5t-32 -13.5q-20 0 -33.5 13.5t-13.5 32.5t13.5 32t33.5 13zM245 137q0 20 13 33.5t33 13.5t33 -13.5t13 -33.5q0 -19 -13.5 -32t-32.5 -13t-32.5 13t-13.5 32zM48 387h485q10 0 10 -9v-50q0 -10 -10 -10h-485q-9 0 -9 10v50q0 9 9 9 z" />
<glyph unicode="&#xf8;" horiz-adv-x="575" d="M45 225q0 102 67 167q68 68 172 68q80 0 142 -43l22 25q10 10 15 10h27q7 0 8.5 -4.5t-2.5 -9.5l-40 -46q67 -65 67 -167t-67 -167q-68 -68 -172 -68q-79 0 -139 40l-18 -21q-7 -9 -15 -9h-27q-16 0 -6 13l36 42l-3 3q-67 65 -67 167zM117 225q0 -72 42 -119l225 261 q-42 33 -100 33q-75 0 -122 -53q-45 -48 -45 -122zM451 225q0 68 -39 115l-224 -261q42 -29 96 -29q75 0 122 53q45 48 45 122z" />
<glyph unicode="&#xf9;" horiz-adv-x="545" d="M65 191v251q0 10 9 10h54q10 0 10 -10v-244q0 -55 18 -88q33 -55 117 -55q87 0 116 54q18 31 18 89v244q0 10 10 10h54q9 0 9 -10v-251q0 -79 -33 -128q-50 -73 -174 -73q-125 0 -175 73q-33 49 -33 128zM197 765h50q7 0 13 -10l90 -167q1 -2 2 -5t1 -5.5t-2 -4.5t-6 -2 h-37q-9 0 -14 9l-104 169q-3 6 -3 9q0 7 10 7z" />
<glyph unicode="&#xfa;" horiz-adv-x="545" d="M65 191v251q0 10 9 10h54q10 0 10 -10v-244q0 -55 18 -88q33 -55 117 -55q87 0 116 54q18 31 18 89v244q0 10 10 10h54q9 0 9 -10v-251q0 -79 -33 -128q-50 -73 -174 -73q-125 0 -175 73q-33 49 -33 128zM297 764h50q7 0 9 -6q1 -1 1 -3q0 -4 -3 -7l-104 -169 q-5 -9 -14 -9h-37q-8 0 -8 7q0 4 3 10l90 167q6 10 13 10z" />
<glyph unicode="&#xfb;" horiz-adv-x="545" d="M65 191v251q0 10 9 10h54q10 0 10 -10v-244q0 -55 18 -88q33 -55 117 -55q87 0 116 54q18 31 18 89v244q0 10 10 10h54q9 0 9 -10v-251q0 -79 -33 -128q-50 -73 -174 -73q-125 0 -175 73q-33 49 -33 128zM259 764h26q6 0 14 -8l155 -173q4 -4 4 -7q0 -2 -2 -4t-6 -2h-46 q-9 0 -17 8l-115 126l-115 -126q-8 -8 -17 -8h-46q-4 0 -6 2t-2 4q0 3 4 7l155 173q8 8 14 8z" />
<glyph unicode="&#xfc;" horiz-adv-x="545" d="M65 191v251q0 10 9 10h54q10 0 10 -10v-244q0 -55 18 -88q33 -55 117 -55q87 0 116 54q18 31 18 89v244q0 10 10 10h54q9 0 9 -10v-251q0 -79 -33 -128q-50 -73 -174 -73q-125 0 -175 73q-33 49 -33 128zM178 623q-18 0 -31 13t-13 31t13 31t31 13q19 0 31.5 -13 t12.5 -31t-12.5 -31t-31.5 -13zM366 623q-18 0 -31 13t-13 31t13 31t31 13t31 -13t13 -31t-13 -31t-31 -13z" />
<glyph unicode="&#xfd;" horiz-adv-x="477" d="M470 439l-180 -463q-39 -98 -87 -149q-61 -59 -151 -59h-11q-8 0 -8 8v55q0 7 9 7q2 0 8 -0.5t11 -0.5q54 0 95 46q31 36 54 90l-205 466q-1 4 -1 6q0 7 9 7h65q12 0 15 -11l155 -377l140 377q3 11 15 11h60q8 0 8 -6q0 -3 -1 -7zM262 764h50q7 0 9 -6q1 -1 1 -3 q0 -4 -3 -7l-104 -169q-5 -9 -14 -9h-37q-9 0 -9 6q0 4 4 11l90 167q6 10 13 10z" />
<glyph unicode="&#xfe;" horiz-adv-x="524" d="M72 671q0 10 10 10h54q9 0 9 -10v-217q31 6 72 6q123 0 194 -65q69 -64 69 -169t-57 -165q-64 -71 -172 -71q-62 0 -106 20v-232q0 -9 -9 -9h-54q-10 0 -10 9v893zM224 401q-31 0 -79 -6v-324q42 -21 99 -21q72 0 118 46q45 43 45 130q0 80 -48 126q-51 49 -135 49z" />
<glyph unicode="&#xff;" horiz-adv-x="477" d="M470 439l-180 -463q-39 -98 -87 -149q-61 -59 -151 -59h-11q-8 0 -8 8v55q0 7 9 7q2 0 8 -0.5t11 -0.5q54 0 95 46q31 36 54 90l-205 466q-1 4 -1 6q0 7 9 7h65q12 0 15 -11l155 -377l140 377q3 11 15 11h60q8 0 8 -6q0 -3 -1 -7zM143 623q-18 0 -31 13t-13 31t13 31 t31 13q19 0 31.5 -13t12.5 -31t-12.5 -31t-31.5 -13zM331 623q-18 0 -31 13t-13 31t13 31t31 13t31 -13t13 -31t-13 -31t-31 -13z" />
<glyph unicode="&#x152;" horiz-adv-x="1200" d="M686 681h469q9 0 9 -10v-51q0 -10 -9 -10h-398v-234h346q9 0 9 -9v-52q0 -9 -9 -9h-346v-6v-229h398q9 0 9 -10v-52q0 -9 -9 -9h-469q-9 0 -9 9v106q-50 -59 -121.5 -92t-152.5 -33q-147 0 -251.5 101t-104.5 248q0 148 104.5 249.5t251.5 101.5q81 0 152.5 -34 t121.5 -93v108q0 10 9 10zM674 339q0 114 -78.5 195t-192.5 81t-193 -81t-79 -195t79 -194.5t193 -80.5t192.5 80.5t78.5 194.5z" />
<glyph unicode="&#x153;" horiz-adv-x="931" d="M695 50q69 0 136 40q11 7 15 -2l19 -37q4 -7 -4 -13q-71 -48 -172 -48q-114 0 -178 73q-18 20 -25 32q-16 -23 -30 -37q-68 -68 -172 -68t-172 68q-67 65 -67 167t67 167q68 68 172 68t172 -68q16 -16 29 -35q14 23 27 37q61 66 165 66q105 0 164 -72q48 -60 48 -151 q0 -10 -1 -21q0 -11 -12 -11h-348q5 -60 39 -100q46 -55 128 -55zM117 225q0 -74 45 -122q47 -53 122 -53t122 53q45 48 45 122t-45 122q-47 53 -122 53t-122 -53q-45 -48 -45 -122zM528 258h290q-3 61 -37 100q-40 43 -104 43q-72 0 -113 -47q-33 -39 -36 -96z" />
<glyph unicode="&#x178;" horiz-adv-x="610" d="M304 378l209 293q5 10 15 10h70q7 0 9 -5q1 -2 1 -3q0 -4 -3 -7l-261 -367v-290q0 -9 -10 -9h-60q-10 0 -10 9v290l-260 367q-3 4 -3 7q0 8 10 8h69q10 0 16 -10zM210 825q-18 0 -31 13t-13 31t13 31t31 13q19 0 31.5 -13t12.5 -31t-12.5 -31t-31.5 -13zM398 825 q-18 0 -31 13t-13 31t13 31t31 13t31 -13t13 -31t-13 -31t-31 -13z" />
<glyph unicode="&#x2c6;" horiz-adv-x="417" d="M195 764h26q6 0 14 -8l155 -173q4 -4 4 -7q0 -2 -2 -4t-6 -2h-46q-9 0 -17 8l-115 126l-115 -126q-8 -8 -17 -8h-46q-4 0 -6 2t-2 4q0 3 4 7l155 173q8 8 14 8z" />
<glyph unicode="&#x2dc;" horiz-adv-x="417" d="M274 666q41 0 45 38q1 10 10 10h23q12 0 12 -10q0 -41 -22 -66t-62 -25q-33 0 -76 29q-40 26 -62 26q-41 0 -45 -39q-3 -10 -10 -10h-23q-12 0 -12 11q0 41 22 66t62 25q36 0 77 -29q42 -26 61 -26z" />
<glyph unicode="&#x2000;" horiz-adv-x="489" />
<glyph unicode="&#x2001;" horiz-adv-x="978" />
<glyph unicode="&#x2002;" horiz-adv-x="489" />
<glyph unicode="&#x2003;" horiz-adv-x="978" />
<glyph unicode="&#x2004;" horiz-adv-x="326" />
<glyph unicode="&#x2005;" horiz-adv-x="244" />
<glyph unicode="&#x2006;" horiz-adv-x="163" />
<glyph unicode="&#x2007;" horiz-adv-x="163" />
<glyph unicode="&#x2008;" horiz-adv-x="122" />
<glyph unicode="&#x2009;" horiz-adv-x="195" />
<glyph unicode="&#x200a;" horiz-adv-x="54" />
<glyph unicode="&#x2010;" horiz-adv-x="499" d="M401 255h-303q-9 0 -9 10v50q0 9 9 9h303q9 0 9 -9v-50q0 -10 -9 -10z" />
<glyph unicode="&#x2011;" horiz-adv-x="499" d="M401 255h-303q-9 0 -9 10v50q0 9 9 9h303q9 0 9 -9v-50q0 -10 -9 -10z" />
<glyph unicode="&#x2013;" horiz-adv-x="700" d="M601 215h-503q-9 0 -9 10v52q0 10 9 10h503q10 0 10 -10v-52q0 -10 -10 -10z" />
<glyph unicode="&#x2014;" horiz-adv-x="1230" d="M1131 215h-1033q-9 0 -9 10v52q0 10 9 10h1033q10 0 10 -10v-52q0 -10 -10 -10z" />
<glyph unicode="&#x2018;" horiz-adv-x="209" d="M53 586q0 32 22 63q23 32 56 44q3 1 5 1q6 0 9 -5l8 -11q5 -8 -3 -14q-31 -24 -31 -41q0 -12 18.5 -26.5t18.5 -35.5q0 -20 -13 -32.5t-34 -12.5q-56 0 -56 70z" />
<glyph unicode="&#x2019;" horiz-adv-x="209" d="M156 621q0 -33 -22 -64q-23 -32 -56 -43q-3 -1 -6 -1q-5 0 -9 4l-8 12q-5 8 4 13q30 25 30 41q0 12 -18 27t-18 36q0 20 13 32.5t34 12.5q56 0 56 -70z" />
<glyph unicode="&#x201a;" horiz-adv-x="196" d="M152 9q0 -32 -22 -63q-23 -32 -56 -44q-3 -1 -6 -1q-5 0 -9 5l-8 11q-4 8 4 14q30 25 30 41q0 11 -18 26t-18 37q0 20 12.5 32t34.5 12q56 0 56 -70z" />
<glyph unicode="&#x201c;" horiz-adv-x="363" d="M207 586q0 32 22 63q23 32 56 44q3 1 5 1q6 0 9 -5l8 -11q5 -8 -3 -14q-31 -24 -31 -41q0 -12 18.5 -26.5t18.5 -35.5q0 -20 -13 -32.5t-34 -12.5q-56 0 -56 70zM53 583q-1 33 22 65.5t56 44.5q3 1 5 1q6 0 9 -5l8 -11q5 -8 -3 -14q-31 -22 -31 -41q0 -12 18.5 -26.5 t18.5 -35.5q0 -20 -13 -32.5t-34 -12.5q-56 0 -56 67z" />
<glyph unicode="&#x201d;" horiz-adv-x="363" d="M156 621q0 -33 -22 -64q-23 -32 -56 -43q-3 -1 -6 -1q-5 0 -9 4l-8 12q-5 8 4 13q30 25 30 41q0 12 -18 27t-18 36q0 20 13 32.5t34 12.5q56 0 56 -70zM310 621q0 -33 -22 -64q-24 -32 -57 -43q-4 -1 -6 -1q-5 0 -8 4l-8 12q-4 7 3 13q31 24 31 41q0 12 -18 27t-18 36 q0 20 13 32.5t34 12.5q56 0 56 -70z" />
<glyph unicode="&#x201e;" horiz-adv-x="350" d="M152 9q0 -32 -22 -63q-23 -32 -56 -44q-3 -1 -6 -1q-5 0 -9 5l-8 11q-4 8 4 14q30 25 30 41q0 11 -18 26t-18 37q0 20 12.5 32t34.5 12q56 0 56 -70zM306 9q0 -32 -22 -63q-24 -32 -57 -44q-3 -1 -5 -1q-6 0 -9 5l-8 11q-4 7 3 14q31 24 31 41q0 11 -18 26t-18 37 q0 20 12.5 32t34.5 12q56 0 56 -70z" />
<glyph unicode="&#x2022;" horiz-adv-x="510" d="M53 341q0 83 59.5 142.5t142.5 59.5t142.5 -59.5t59.5 -142.5t-59.5 -142.5t-142.5 -59.5t-142.5 59.5t-59.5 142.5z" />
<glyph unicode="&#x2026;" horiz-adv-x="683" d="M640 37q0 -19 -13 -32.5t-32 -13.5q-20 0 -33.5 13.5t-13.5 32.5t13.5 32.5t33.5 13.5q19 0 32 -13.5t13 -32.5zM390 37q0 -19 -13 -32.5t-32 -13.5t-32.5 13.5t-13.5 32.5t13.5 32.5t32.5 13.5t32 -13.5t13 -32.5zM141 37q0 -19 -13.5 -32.5t-32.5 -13.5t-32.5 13.5 t-13.5 32.5t13.5 32.5t32.5 13.5t32.5 -13.5t13.5 -32.5z" />
<glyph unicode="&#x202f;" horiz-adv-x="195" />
<glyph unicode="&#x2039;" horiz-adv-x="343" d="M31 227q0 6 7 15l191 207q9 9 19 9h54q11 0 11 -7q0 -5 -4 -10l-194 -214l194 -213q4 -6 4 -11q0 -7 -11 -7h-54q-10 0 -19 10l-191 207q-7 7 -7 14z" />
<glyph unicode="&#x203a;" horiz-adv-x="343" d="M312 227q0 -7 -7 -14l-192 -207q-7 -10 -19 -10h-53q-9 0 -11 5v3q0 4 4 10l194 213l-194 214q-4 5 -4 9q0 8 11 8h53q11 0 19 -9l192 -207q7 -9 7 -15z" />
<glyph unicode="&#x205f;" horiz-adv-x="244" />
<glyph unicode="&#x20ac;" d="M-2 428h62q25 96 100 168q100 94 237 94q117 0 207 -53q10 -7 6 -16l-24 -50q-3 -9 -13 -3q-85 50 -177 50q-96 0 -169 -66q-58 -53 -80 -124h358q9 0 9 -9v-25q0 -9 -9 -9h-371q-4 -20 -4 -44q0 -23 3 -46h316q9 0 9 -10v-24q0 -10 -9 -10h-302q21 -76 77 -126 q72 -63 173 -63q96 0 178 51q9 6 14 -3l23 -51q2 -3 2 -6q0 -5 -6 -8q-93 -55 -211 -55q-134 0 -226 77q-88 71 -113 184h-60q-9 0 -9 10v24q0 10 9 10h53q-2 15 -2 46q0 29 3 44h-54q-9 0 -9 9v25q0 9 9 9z" />
<glyph unicode="&#x2122;" horiz-adv-x="776" d="M37 713h273q10 0 10 -10v-23q0 -10 -10 -10h-112v-306q0 -9 -10 -9h-28q-10 0 -10 9v306h-113q-9 0 -9 10v23q0 10 9 10zM539 491l126 212q7 10 18 10h26q9 0 9 -10v-342q0 -9 -9 -9h-28q-9 0 -9 9v268l-113 -188q-6 -10 -14 -10h-12q-8 0 -14 10l-112 188v-268 q0 -9 -10 -9h-27q-9 0 -9 9v342q0 10 9 10h26q11 0 17 -10z" />
</font>
</defs>
</svg>
